<?xml version="1.0" encoding="UTF-8"?>
<!-- Generator: visioncortex VTracer 0.6.1 -->
<svg version="1.1" xmlns="http://www.w3.org/2000/svg" width="1280" height="208">
<path d="M0 0 C1.27423828 -0.00193359 1.27423828 -0.00193359 2.57421875 -0.00390625 C3.91419922 0.00189453 3.91419922 0.00189453 5.28125 0.0078125 C6.17457031 0.00394531 7.06789063 0.00007813 7.98828125 -0.00390625 C8.83777344 -0.00261719 9.68726563 -0.00132813 10.5625 0 C11.34689453 0.00112793 12.13128906 0.00225586 12.93945312 0.00341797 C14.78125 0.1328125 14.78125 0.1328125 15.78125 1.1328125 C15.89436141 3.04302056 15.93808694 4.95736886 15.95483398 6.87084961 C15.96832382 8.09980453 15.98181366 9.32875946 15.99571228 10.59495544 C16.00077223 11.25669706 16.00583218 11.91843868 16.01104546 12.60023308 C16.02745372 14.67405462 16.05069909 16.74769473 16.07594299 18.82142639 C16.14666782 24.71980702 16.20641161 30.61826807 16.25805664 36.5168457 C16.29011447 40.12318806 16.3314718 43.72933225 16.37825203 47.33551216 C16.39413443 48.70321591 16.40651839 50.07096539 16.41515923 51.43873405 C16.06747616 66.12069699 16.06747616 66.12069699 21.78125 79.1328125 C27.6132902 83.59990712 33.51207428 84.35573389 40.78125 84.1328125 C46.4915179 83.21336258 50.2305452 80.263835 54.3359375 76.33984375 C59.11736517 69.03847446 58.10944585 59.52442183 58.16015625 51.16796875 C58.1763534 49.72447102 58.19353568 48.28098404 58.21165466 46.83750916 C58.25707251 43.06180779 58.29203031 39.28609171 58.32385254 35.51025391 C58.37600439 29.44272188 58.44074348 23.37534607 58.51206779 17.30801201 C58.53492843 15.18908501 58.55117138 13.07017833 58.56678772 10.95118713 C58.58027756 9.67573532 58.5937674 8.40028351 58.60766602 7.08618164 C58.62193382 5.39362999 58.62193382 5.39362999 58.63648987 3.66688538 C58.78125 1.1328125 58.78125 1.1328125 59.78125 0.1328125 C61.18473735 0.03421119 62.59305477 0.00202313 64 0 C65.27423828 -0.00193359 65.27423828 -0.00193359 66.57421875 -0.00390625 C67.46753906 -0.00003906 68.36085938 0.00382812 69.28125 0.0078125 C70.17457031 0.00394531 71.06789063 0.00007813 71.98828125 -0.00390625 C72.83777344 -0.00261719 73.68726563 -0.00132813 74.5625 0 C75.34689453 0.00112793 76.13128906 0.00225586 76.93945312 0.00341797 C78.78125 0.1328125 78.78125 0.1328125 79.78125 1.1328125 C79.89129388 3.21629324 79.93038512 5.30354225 79.94238281 7.38989258 C79.94983017 8.3706929 79.94983017 8.3706929 79.95742798 9.37130737 C79.97210243 11.54833008 79.97886564 13.72527956 79.984375 15.90234375 C79.99012882 17.41916404 79.99588653 18.93598431 80.00164795 20.45280457 C80.01217745 23.64489074 80.01800513 26.83695163 80.02148438 30.02905273 C80.02692718 34.08938464 80.050855 38.14937402 80.07945633 42.20959949 C80.09824155 45.3506308 80.103297 48.49158294 80.10482025 51.63266563 C80.10781938 53.12716196 80.11575351 54.62165782 80.12900543 56.1160984 C80.25423758 71.34514189 78.13354706 84.1439292 67.71875 95.8203125 C64.78125 98.1328125 64.78125 98.1328125 61.90625 98.0078125 C61.205 97.7190625 60.50375 97.4303125 59.78125 97.1328125 C60.11125 98.4528125 60.44125 99.7728125 60.78125 101.1328125 C59.57568396 101.76313383 58.36661811 102.3867622 57.15625 103.0078125 C56.48335937 103.35585937 55.81046875 103.70390625 55.1171875 104.0625 C49.32923113 106.71450676 44.38351065 107.52040395 38.09375 107.5078125 C37.30009033 107.50692627 36.50643066 107.50604004 35.6887207 107.50512695 C26.8390537 107.32775546 17.96746223 104.88684037 11.28125 98.7578125 C10.78625 98.2215625 10.29125 97.6853125 9.78125 97.1328125 C9.018125 96.4109375 8.255 95.6890625 7.46875 94.9453125 C-3.5841718 83.37830132 -5.82715806 72.8069659 -5.64453125 57.22265625 C-5.63959943 55.60267032 -5.63630571 53.98267866 -5.63456726 52.36268616 C-5.62697206 48.98972999 -5.60653705 45.61720504 -5.57543945 42.24438477 C-5.53558046 37.91317704 -5.51777999 33.58224684 -5.50813007 29.25087643 C-5.49819006 25.116432 -5.4783069 20.9820556 -5.45703125 16.84765625 C-5.4536355 16.05715315 -5.45023975 15.26665005 -5.4467411 14.45219231 C-5.43522406 12.23098378 -5.41671972 10.00995528 -5.39575195 7.78881836 C-5.38590775 6.52436386 -5.37606354 5.25990936 -5.36592102 3.95713806 C-5.13754556 -0.42556339 -3.98348739 0.0057281 0 0 Z " fill="#E8E7EB" transform="translate(1047.21875,37.8671875)"/>
<path d="M0 0 C2.27130055 1.44373758 3.80217385 2.2633468 6.4375 2.9375 C9.12490485 2.3787028 9.12490485 2.3787028 11.1875 -0.8125 C12.033125 -1.781875 12.87875 -2.75125 13.75 -3.75 C16.72 -3.255 16.72 -3.255 19.75 -2.75 C19.75 22.99 19.75 48.73 19.75 75.25 C18.1 75.58 16.45 75.91 14.75 76.25 C14.31429687 75.61191406 13.87859375 74.97382813 13.4296875 74.31640625 C9.81881335 69.02546984 9.81881335 69.02546984 4.3125 66.1875 C3.466875 66.208125 2.62125 66.22875 1.75 66.25 C2.41 66.58 3.07 66.91 3.75 67.25 C3.75 67.91 3.75 68.57 3.75 69.25 C2.76 69.25 1.77 69.25 0.75 69.25 C0.75 69.91 0.75 70.57 0.75 71.25 C-10.36217842 77.84662889 -21.40364333 79.32986442 -33.98828125 76.37109375 C-45.60618101 72.37787551 -54.82229892 63.82398805 -60.375 52.875 C-64.22635286 42.16907329 -64.42252871 29.01077247 -59.83569336 18.53173828 C-53.60009861 6.14982 -44.6270503 -1.88654334 -31.375 -6.38671875 C-19.43320246 -8.42823929 -10.03896211 -6.52532537 0 0 Z M-37.25 22.25 C-37.91 22.91 -38.57 23.57 -39.25 24.25 C-40.61684528 27.95005888 -40.41816821 31.78634514 -40.4375 35.6875 C-40.45167969 36.98558594 -40.46585938 38.28367187 -40.48046875 39.62109375 C-40.17436004 44.4410089 -39.14509298 47.1442969 -36.125 50.875 C-30.46998281 55.54653594 -24.86266088 56.75660169 -17.59375 56.5546875 C-14.39306736 56.13859876 -11.96061181 54.96196535 -9.25 53.25 C-9.25 52.59 -9.25 51.93 -9.25 51.25 C-7.765 50.755 -7.765 50.755 -6.25 50.25 C-1.57772906 44.64327487 -1.59608921 39.06176923 -1.80078125 31.92578125 C-2.60784916 25.32186038 -5.19104536 21.41454206 -9.6875 16.6875 C-19.82374053 12.59743803 -29.93873381 14.34592844 -37.25 22.25 Z " fill="#E7E6EA" transform="translate(921.25,68.75)"/>
<path d="M0 0 C0.74564209 -0.00128906 1.49128418 -0.00257812 2.25952148 -0.00390625 C8.35992331 0.11248082 13.36779623 1.41280431 18.75 4.375 C18.75 5.035 18.75 5.695 18.75 6.375 C19.28625 6.478125 19.8225 6.58125 20.375 6.6875 C23.37502044 7.55592697 25.9879535 8.93120296 28.75 10.375 C29.12511719 9.8696875 29.50023437 9.364375 29.88671875 8.84375 C34.07330001 3.52879545 34.07330001 3.52879545 37.5 2.75 C39.75 3.375 39.75 3.375 41.75 6.375 C41.90477689 8.85547631 41.94378805 11.21552953 41.88525391 13.69213867 C41.87579239 14.43384811 41.86633087 15.17555756 41.85658264 15.93974304 C41.82290762 18.39106922 41.77479218 20.84188929 41.7265625 23.29296875 C41.70039507 24.99260638 41.67512808 26.6922581 41.65072632 28.391922 C41.58407827 32.86536479 41.50518488 37.33851144 41.42376709 41.81170654 C41.34284413 46.37630853 41.27346582 50.94108423 41.203125 55.50585938 C41.06340206 64.46244784 40.91074619 73.41876592 40.75 82.375 C39.1 82.705 37.45 83.035 35.75 83.375 C34.91094435 82.25426138 34.07892169 81.12825453 33.25 80 C32.7859375 79.37351562 32.321875 78.74703125 31.84375 78.1015625 C30.75 76.375 30.75 76.375 30.75 74.375 C29.1 74.375 27.45 74.375 25.75 74.375 C25.75 75.035 25.75 75.695 25.75 76.375 C23.44045255 77.78081149 21.13104547 79.0982075 18.75 80.375 C18.0590625 80.7565625 17.368125 81.138125 16.65625 81.53125 C7.56902819 85.88813717 -3.76953019 85.71002501 -13.5 83.5 C-22.52202607 80.22488095 -31.02345155 72.9087407 -36.1015625 64.87109375 C-39.5247185 57.43096898 -40.7311131 50.93249936 -40.625 42.75 C-40.63660156 41.84765625 -40.64820313 40.9453125 -40.66015625 40.015625 C-40.6352441 34.31904663 -39.8387417 30.44592502 -37.25 25.375 C-36.88519531 24.52035156 -36.52039063 23.66570312 -36.14453125 22.78515625 C-30.84773074 11.29282012 -22.96059237 5.83971742 -11.4609375 1.265625 C-7.61229375 0.19811797 -3.96462883 -0.00709315 0 0 Z M-15.6171875 27.82421875 C-18.63306278 32.45202738 -18.65320859 37.5799805 -18.75 42.9375 C-18.76869141 43.65768311 -18.78738281 44.37786621 -18.80664062 45.11987305 C-18.7413791 50.60497832 -17.31954321 53.83391548 -14.25 58.375 C-10.01244831 62.47129996 -4.99373677 63.49776695 0.75 63.6875 C6.21913243 63.53217337 9.6683028 62.44805945 13.6328125 58.5 C19.41001118 52.13806461 20.22243031 47.63288278 20.16015625 39.0390625 C19.54823511 33.57256695 17.55102151 29.35590524 13.75 25.375 C5.04206271 19.92030895 -8.29743968 20.06528606 -15.6171875 27.82421875 Z M-20.25 32.375 C-19.25 35.375 -19.25 35.375 -19.25 35.375 Z " fill="#E7E6EA" transform="translate(482.25,61.625)"/>
<path d="M0 0 C5.06438324 2.78218506 9.37918921 6.27372046 13.453125 10.34765625 C13.13303486 14.26059496 11.76283172 16.7508803 9.515625 19.91015625 C7.5811946 22.65257969 5.88046141 25.30680911 4.453125 28.34765625 C2.00581723 27.17294852 -0.16035348 25.9342251 -2.421875 24.41015625 C-10.89306443 19.60316439 -20.57655734 18.59232182 -29.9765625 20.59765625 C-33.05636429 21.49632182 -35.77273255 22.74157378 -38.546875 24.34765625 C-39.206875 24.34765625 -39.866875 24.34765625 -40.546875 24.34765625 C-40.546875 25.00765625 -40.546875 25.66765625 -40.546875 26.34765625 C-41.30613281 26.78335938 -42.06539063 27.2190625 -42.84765625 27.66796875 C-45.89287733 29.56296884 -46.98135655 31.13020011 -48.734375 34.22265625 C-49.22292969 35.06570312 -49.71148437 35.90875 -50.21484375 36.77734375 C-54.6261027 45.28939181 -55.06828854 54.65178573 -52.6015625 63.88671875 C-50.44851897 69.34380393 -48.20353617 73.62232731 -43.546875 77.34765625 C-42.78375 78.04890625 -42.020625 78.75015625 -41.234375 79.47265625 C-34.06493192 84.47459328 -25.42278558 86.10718446 -16.796875 84.9921875 C-14.35833467 84.50955973 -11.95856557 83.94852114 -9.546875 83.34765625 C-7.881659 83.0071499 -6.21533102 82.67191449 -4.546875 82.34765625 C-4.546875 81.68765625 -4.546875 81.02765625 -4.546875 80.34765625 C-1.64138618 78.3059614 -0.14545454 77.34765625 3.453125 77.34765625 C7.49185324 81.52565098 11.07903632 87.03833065 13.453125 92.34765625 C13.31333759 95.02358669 12.69431957 96.06761995 10.94921875 98.09375 C-0.56140711 107.55124715 -13.44803486 109.34180142 -27.859375 108.01171875 C-33.73804856 107.29115318 -39.10805164 105.72437784 -44.546875 103.34765625 C-44.546875 102.68765625 -44.546875 102.02765625 -44.546875 101.34765625 C-45.206875 101.30640625 -45.866875 101.26515625 -46.546875 101.22265625 C-53.48665103 99.19855491 -60.12046013 92.9672786 -64.546875 87.34765625 C-65.23828125 85.13671875 -65.23828125 85.13671875 -65.546875 83.34765625 C-66.206875 83.34765625 -66.866875 83.34765625 -67.546875 83.34765625 C-68.5171071 81.68788813 -69.47243173 80.01940325 -70.421875 78.34765625 C-70.95554687 77.41953125 -71.48921875 76.49140625 -72.0390625 75.53515625 C-75.57049507 68.06974439 -75.88597453 61.10147258 -75.859375 52.97265625 C-75.87548828 51.99554688 -75.89160156 51.0184375 -75.90820312 50.01171875 C-75.91420773 40.98079138 -74.03661414 33.31973855 -69.484375 25.47265625 C-68.97777344 24.58835937 -68.47117187 23.7040625 -67.94921875 22.79296875 C-67.48644531 21.98601563 -67.02367187 21.1790625 -66.546875 20.34765625 C-66.22976563 19.64640625 -65.91265625 18.94515625 -65.5859375 18.22265625 C-64.35426819 16.00009509 -62.96427643 14.8016173 -60.984375 13.22265625 C-58.33661834 11.13861991 -58.33661834 11.13861991 -56.546875 8.34765625 C-40.07068582 -2.11816265 -18.87032291 -7.6971054 0 0 Z M10.453125 93.34765625 C11.453125 96.34765625 11.453125 96.34765625 11.453125 96.34765625 Z " fill="#E6E5E9" transform="translate(424.546875,39.65234375)"/>
<path d="M0 0 C0.93429337 -0.00315216 1.86858673 -0.00630432 2.83119202 -0.009552 C4.34065651 -0.00651566 4.34065651 -0.00651566 5.88061523 -0.00341797 C7.43195412 -0.00485306 7.43195412 -0.00485306 9.01463318 -0.00631714 C11.20099956 -0.00699775 13.38736797 -0.00515177 15.57373047 -0.00097656 C18.92932649 0.00437876 22.28478898 -0.0009284 25.64038086 -0.00732422 C27.76212595 -0.00666352 29.88387095 -0.00538254 32.00561523 -0.00341797 C33.51811607 -0.00645432 33.51811607 -0.00645432 35.06117249 -0.009552 C36.45788429 -0.00482376 36.45788429 -0.00482376 37.8828125 0 C38.70427261 0.00079559 39.52573273 0.00159119 40.37208557 0.00241089 C42.37670898 0.12939453 42.37670898 0.12939453 44.37670898 1.12939453 C44.40559413 4.27520876 44.42346821 7.42098922 44.43920898 10.56689453 C44.44758789 11.46472656 44.4559668 12.36255859 44.46459961 13.28759766 C44.46782227 14.14160156 44.47104492 14.99560547 44.47436523 15.87548828 C44.47960205 16.66624756 44.48483887 17.45700684 44.49023438 18.27172852 C44.37670898 20.12939453 44.37670898 20.12939453 43.37670898 21.12939453 C42.02687151 21.25124596 40.67096197 21.30706284 39.31591797 21.3347168 C38.45510117 21.35466202 37.59428436 21.37460724 36.7073822 21.39515686 C35.30426537 21.4202256 35.30426537 21.4202256 33.87280273 21.44580078 C32.91978775 21.46658188 31.96677277 21.48736298 30.98487854 21.5087738 C27.92806488 21.5743763 24.87116242 21.63320371 21.81420898 21.69189453 C19.74714236 21.73506959 17.68008484 21.77868354 15.61303711 21.82275391 C10.53435303 21.93006854 5.45557928 22.03130544 0.37670898 22.12939453 C0.04670898 24.43939453 -0.28329102 26.74939453 -0.62329102 29.12939453 C0.28437012 29.14397705 1.19203125 29.15855957 2.12719727 29.17358398 C5.51580209 29.23487602 8.90362587 29.3090703 12.29174805 29.3918457 C13.75420606 29.42496589 15.21678793 29.45303758 16.67944336 29.47583008 C18.79000302 29.50961629 20.89944084 29.56193833 23.00952148 29.61767578 C24.27683105 29.64385986 25.54414062 29.67004395 26.84985352 29.69702148 C34.97738655 30.69341225 41.13676931 36.13165053 46.37670898 42.12939453 C49.45950481 48.1753553 50.48415891 54.90158256 48.75561523 61.50048828 C46.11789287 69.20263759 41.65187671 74.80192286 34.46899414 78.71240234 C29.33635937 80.84466243 24.08231651 80.53966287 18.60717773 80.49267578 C17.48982742 80.49317429 16.37247711 80.49367279 15.2212677 80.4941864 C12.87047538 80.49185399 10.51968018 80.4821749 8.16894531 80.46557617 C4.55893865 80.44185991 0.94966503 80.44503708 -2.66040039 80.45166016 C-4.94621211 80.44608718 -7.23202071 80.4389797 -9.51782227 80.43017578 C-11.14274345 80.43154289 -11.14274345 80.43154289 -12.80049133 80.43293762 C-14.2979615 80.4186396 -14.2979615 80.4186396 -15.82568359 80.40405273 C-17.14636589 80.39714165 -17.14636589 80.39714165 -18.49372864 80.39009094 C-20.62329102 80.12939453 -20.62329102 80.12939453 -22.62329102 78.12939453 C-22.88208008 76.28173828 -22.88208008 76.28173828 -22.88891602 74.06689453 C-22.89149414 73.27025391 -22.89407227 72.47361328 -22.89672852 71.65283203 C-22.88899414 70.82009766 -22.88125977 69.98736328 -22.87329102 69.12939453 C-22.88102539 68.29666016 -22.88875977 67.46392578 -22.89672852 66.60595703 C-22.89415039 65.80931641 -22.89157227 65.01267578 -22.88891602 64.19189453 C-22.88666016 63.46099609 -22.8844043 62.73009766 -22.88208008 61.97705078 C-22.62329102 60.12939453 -22.62329102 60.12939453 -20.62329102 58.12939453 C-18.59848022 57.85092163 -18.59848022 57.85092163 -16.08178711 57.81054688 C-15.14096283 57.79067719 -14.20013855 57.7708075 -13.23080444 57.75033569 C-12.21305939 57.73878448 -11.19531433 57.72723328 -10.14672852 57.71533203 C-8.58615219 57.68628281 -8.58615219 57.68628281 -6.99404907 57.65664673 C-3.66221382 57.59673726 -0.33034423 57.55042001 3.00170898 57.50439453 C5.25693261 57.46622523 7.5121415 57.42717413 9.76733398 57.38720703 C15.30366174 57.29102654 20.84007784 57.20601257 26.37670898 57.12939453 C26.70670898 55.47939453 27.03670898 53.82939453 27.37670898 52.12939453 C26.60593018 52.14510498 25.83515137 52.16081543 25.04101562 52.17700195 C21.50715642 52.23983672 17.97341528 52.2785388 14.43920898 52.31689453 C13.2268457 52.34203125 12.01448242 52.36716797 10.76538086 52.39306641 C1.91532068 52.46501812 -6.25112907 52.11890356 -12.93579102 45.69189453 C-13.90838867 44.76957031 -13.90838867 44.76957031 -14.90063477 43.82861328 C-15.46911133 43.26787109 -16.03758789 42.70712891 -16.62329102 42.12939453 C-17.79891602 41.07751953 -17.79891602 41.07751953 -18.99829102 40.00439453 C-23.32085261 35.01682346 -23.16932984 29.14777707 -23.05688477 22.84423828 C-22.2410234 15.85429091 -19.6374488 9.8103546 -14.32641602 5.08642578 C-9.64961297 1.86921323 -5.73367979 0.00554776 0 0 Z " fill="#E7E6E9" transform="translate(768.623291015625,64.87060546875)"/>
<path d="M0 0 C4.38101757 3.363655 7.9610165 6.72399962 11.31640625 11.12890625 C9.91219323 15.59685676 7.63206605 17.89826337 4.31640625 21.12890625 C3.82140625 22.61390625 3.82140625 22.61390625 3.31640625 24.12890625 C1.66255392 25.47810157 -0.00529575 26.81024353 -1.68359375 28.12890625 C-3.4468288 30.2549381 -3.4468288 30.2549381 -4.68359375 32.12890625 C-5.67359375 31.79890625 -6.66359375 31.46890625 -7.68359375 31.12890625 C-7.68359375 31.78890625 -7.68359375 32.44890625 -7.68359375 33.12890625 C-8.01359375 33.45890625 -8.34359375 33.78890625 -8.68359375 34.12890625 C-7.69359375 34.62390625 -7.69359375 34.62390625 -6.68359375 35.12890625 C-7.32167969 35.81597656 -7.95976563 36.50304687 -8.6171875 37.2109375 C-9.44347656 38.11199219 -10.26976562 39.01304688 -11.12109375 39.94140625 C-12.35666016 41.28138672 -12.35666016 41.28138672 -13.6171875 42.6484375 C-15.85078463 45.02338708 -15.85078463 45.02338708 -16.68359375 48.12890625 C-17.89015625 49.05703125 -17.89015625 49.05703125 -19.12109375 50.00390625 C-21.90510805 52.31260104 -22.50214185 53.79886042 -23.68359375 57.12890625 C-16.0674562 56.33010701 -10.82367833 55.0182743 -5.68359375 49.12890625 C-5.02359375 48.13890625 -4.36359375 47.14890625 -3.68359375 46.12890625 C-3.02359375 46.12890625 -2.36359375 46.12890625 -1.68359375 46.12890625 C-1.47734375 46.68578125 -1.27109375 47.24265625 -1.05859375 47.81640625 C0.29647241 50.38939331 0.29647241 50.38939331 3.25390625 52.56640625 C6.14369577 54.9843934 7.78899394 56.7146905 9.31640625 60.12890625 C8.82140625 61.61390625 8.82140625 61.61390625 8.31640625 63.12890625 C8.97640625 63.45890625 9.63640625 63.78890625 10.31640625 64.12890625 C-1.21305537 75.18584895 -9.60378627 78.5837918 -25.26171875 78.33203125 C-36.97942941 77.93134223 -46.44263853 71.21504174 -54.40625 62.8359375 C-62.94778589 51.42110208 -62.5697012 38.76704044 -61.68359375 25.12890625 C-59.98171505 15.55327551 -54.32285456 7.77063872 -46.74609375 1.81640625 C-32.94902442 -7.80945607 -14.22033506 -9.9149061 0 0 Z M8.31640625 11.12890625 C9.31640625 14.12890625 9.31640625 14.12890625 9.31640625 14.12890625 Z M-37.68359375 23.12890625 C-40.53859398 27.80320258 -41.0738965 31.63743358 -40.87109375 37.00390625 C-40.85755859 37.69226563 -40.84402344 38.380625 -40.83007812 39.08984375 C-40.79507745 40.76987626 -40.74128329 42.44949975 -40.68359375 44.12890625 C-37.72844836 44.4817685 -37.72844836 44.4817685 -36.3684082 42.81884766 C-35.93230225 42.21218262 -35.49619629 41.60551758 -35.046875 40.98046875 C-34.55541992 40.30886719 -34.06396484 39.63726562 -33.55761719 38.9453125 C-33.04231445 38.22214844 -32.52701172 37.49898437 -31.99609375 36.75390625 C-30.92575342 35.28682991 -29.85413641 33.82068415 -28.78125 32.35546875 C-28.2567627 31.63520508 -27.73227539 30.91494141 -27.19189453 30.17285156 C-24.15296505 26.05470367 -20.92203027 22.09122858 -17.68359375 18.12890625 C-19.66347186 15.70947939 -19.66347186 15.70947939 -23.49609375 15.87890625 C-29.98649515 16.07807019 -33.42005006 18.19217145 -37.68359375 23.12890625 Z M5.31640625 16.12890625 C6.31640625 18.12890625 6.31640625 18.12890625 6.31640625 18.12890625 Z " fill="#E7E6EA" transform="translate(726.68359375,67.87109375)"/>
<path d="M0 0 C10.43764103 5.57330644 17.88731146 12.93522218 22.06445312 24.01513672 C24.83172254 33.76190182 23.66195025 44.66734727 23.5 54.6875 C23.48346836 57.07680866 23.46912667 59.46613352 23.45703125 61.85546875 C23.42322625 66.18672032 23.3889272 70.51781911 23.31787109 74.84863281 C23.30501068 75.71321106 23.29215027 76.57778931 23.27890015 77.46856689 C23.125 79.4375 23.125 79.4375 22.125 80.4375 C18.9867655 80.68716567 15.83450387 80.62271791 12.6875 80.625 C11.36008789 80.64336914 11.36008789 80.64336914 10.00585938 80.66210938 C9.15958984 80.66404297 8.31332031 80.66597656 7.44140625 80.66796875 C6.66224854 80.67207764 5.88309082 80.67618652 5.08032227 80.68041992 C3.125 80.4375 3.125 80.4375 1.125 78.4375 C0.85325623 76.32571411 0.85325623 76.32571411 0.82202148 73.68408203 C0.79705849 72.20211838 0.79705849 72.20211838 0.77159119 70.69021606 C0.76317703 69.61939789 0.75476288 68.54857971 0.74609375 67.4453125 C0.72060204 65.79908401 0.72060204 65.79908401 0.69459534 64.11959839 C0.64132207 60.60062463 0.60112203 57.08166272 0.5625 53.5625 C0.51855849 50.05054075 0.47179853 46.53867277 0.41969299 43.02682495 C0.38777531 40.83884499 0.36087301 38.650785 0.33946228 36.462677 C0.32597244 35.46839691 0.3124826 34.47411682 0.29858398 33.44970703 C0.28907211 32.57637726 0.27956024 31.70304749 0.26976013 30.80325317 C0.13034105 28.5247865 -0.12767741 26.59401516 -0.875 24.4375 C-2.7751177 23.19575204 -2.7751177 23.19575204 -4.875 22.4375 C-5.535 22.1075 -6.195 21.7775 -6.875 21.4375 C-12.7246384 20.89041152 -18.02456327 20.77009662 -22.875 24.4375 C-26.26336166 30.49021442 -26.3445397 36.00341413 -26.38671875 42.83984375 C-26.40466995 43.91754532 -26.42262115 44.99524689 -26.44111633 46.10560608 C-26.49505446 49.52869826 -26.52906276 52.9516523 -26.5625 56.375 C-26.59568756 58.70379519 -26.63017854 61.0325722 -26.66601562 63.36132812 C-26.75077144 69.05326151 -26.81919092 74.74521313 -26.875 80.4375 C-29.99992251 80.49541844 -33.12470766 80.53106746 -36.25 80.5625 C-37.13945313 80.57925781 -38.02890625 80.59601563 -38.9453125 80.61328125 C-39.79609375 80.61972656 -40.646875 80.62617188 -41.5234375 80.6328125 C-42.30895996 80.64328613 -43.09448242 80.65375977 -43.90380859 80.66455078 C-45.875 80.4375 -45.875 80.4375 -47.875 78.4375 C-48.0627701 75.93787754 -48.12694071 73.55005803 -48.10205078 71.05029297 C-48.10234283 70.28922241 -48.10263489 69.52815186 -48.10293579 68.74401855 C-48.10153981 66.22245984 -48.08596618 63.70119475 -48.0703125 61.1796875 C-48.06658332 59.43376833 -48.0637359 57.68784706 -48.06173706 55.94192505 C-48.05409311 51.3420028 -48.03443813 46.74220643 -48.0123291 42.14233398 C-47.99188704 37.4503754 -47.98273886 32.75839651 -47.97265625 28.06640625 C-47.95119292 18.85671546 -47.91704783 9.64711819 -47.875 0.4375 C-45.0390625 0.27734375 -45.0390625 0.27734375 -41.875 0.4375 C-40.18837542 2.08396685 -38.51988294 3.74933067 -36.875 5.4375 C-33.93295686 5.08711293 -31.5398081 3.86556762 -28.9375 2.5 C-20.06105498 -2.1411631 -9.59660735 -3.95054684 0 0 Z " fill="#E8E7EB" transform="translate(1004.875,64.5625)"/>
<path d="M0 0 C0.88494141 -0.020625 1.76988281 -0.04125 2.68164062 -0.0625 C3.95104492 -0.07023437 3.95104492 -0.07023437 5.24609375 -0.078125 C6.02525146 -0.0874707 6.80440918 -0.09681641 7.60717773 -0.10644531 C8.25243408 0.01118164 8.89769043 0.12880859 9.5625 0.25 C11.98701075 3.88676612 11.73379076 5.36447415 11.5390625 9.66796875 C11.4875 10.92158203 11.4359375 12.17519531 11.3828125 13.46679688 C11.31835938 14.77712891 11.25390625 16.08746094 11.1875 17.4375 C11.12924184 18.77274464 11.07193894 20.10803133 11.015625 21.44335938 C10.87398964 24.7127755 10.72255905 27.98144242 10.5625 31.25 C11.40022949 31.27505615 12.23795898 31.3001123 13.10107422 31.32592773 C16.20602256 31.42100357 19.31080181 31.52024025 22.41552734 31.62231445 C24.42144807 31.68698251 26.42752228 31.74683106 28.43359375 31.80664062 C29.69042969 31.84853516 30.94726562 31.89042969 32.2421875 31.93359375 C33.40476074 31.97025146 34.56733398 32.00690918 35.76513672 32.04467773 C38.5625 32.25 38.5625 32.25 40.5625 33.25 C40.59138514 36.39581423 40.60925923 39.54159469 40.625 42.6875 C40.63337891 43.58533203 40.64175781 44.48316406 40.65039062 45.40820312 C40.65361328 46.26220703 40.65683594 47.11621094 40.66015625 47.99609375 C40.66539307 48.78685303 40.67062988 49.5776123 40.67602539 50.39233398 C40.5625 52.25 40.5625 52.25 39.5625 53.25 C37.48987924 53.33767112 35.41429706 53.35695873 33.33984375 53.34765625 C32.07978516 53.34443359 30.81972656 53.34121094 29.52148438 53.33789062 C28.18098891 53.32953403 26.84049412 53.32106907 25.5 53.3125 C24.15560058 53.3074866 22.8111994 53.30292342 21.46679688 53.29882812 C18.16532059 53.28699488 14.86393197 53.27050971 11.5625 53.25 C11.53304969 56.56248078 11.51555199 59.87492711 11.5 63.1875 C11.49162109 64.11369141 11.48324219 65.03988281 11.47460938 65.99414062 C10.95153502 76.80733618 10.95153502 76.80733618 15 86.25 C18.25113667 88.78747252 19.81520911 89.36937975 23.84375 89.4609375 C24.68550781 89.48929687 25.52726563 89.51765625 26.39453125 89.546875 C28.17296564 89.59895214 29.9516457 89.64322553 31.73046875 89.6796875 C32.57222656 89.710625 33.41398438 89.7415625 34.28125 89.7734375 C35.05404297 89.79325684 35.82683594 89.81307617 36.62304688 89.83349609 C38.5625 90.25 38.5625 90.25 40.5625 93.25 C40.80541992 95.22705078 40.80541992 95.22705078 40.79296875 97.4453125 C40.79103516 98.24324219 40.78910156 99.04117188 40.78710938 99.86328125 C40.77486328 100.69214844 40.76261719 101.52101563 40.75 102.375 C40.74935547 103.21160156 40.74871094 104.04820312 40.74804688 104.91015625 C40.70283163 111.10966837 40.70283163 111.10966837 39.5625 112.25 C36.07166706 112.56045803 32.56541628 112.52864449 29.0625 112.5625 C27.6084375 112.60600586 27.6084375 112.60600586 26.125 112.65039062 C15.24311046 112.7454609 7.45418241 108.58004807 -0.4375 101.25 C-6.94630606 94.12310964 -10.74654505 87.55402874 -10.94921875 77.78515625 C-10.96716995 77.10698349 -10.98512115 76.42881073 -11.00361633 75.73008728 C-11.05724943 73.59095243 -11.09146044 71.45203442 -11.125 69.3125 C-11.15821492 67.85088157 -11.19270837 66.3892916 -11.22851562 64.92773438 C-11.31294603 61.3686979 -11.3799797 57.80958488 -11.4375 54.25 C-13.1390625 54.064375 -13.1390625 54.064375 -14.875 53.875 C-16.050625 53.66875 -17.22625 53.4625 -18.4375 53.25 C-19.61176264 50.90147472 -19.55258173 49.51225935 -19.53515625 46.8984375 C-19.53193359 46.04765625 -19.52871094 45.196875 -19.52539062 44.3203125 C-19.51701172 43.43085937 -19.50863281 42.54140625 -19.5 41.625 C-19.49548828 40.7278125 -19.49097656 39.830625 -19.48632812 38.90625 C-19.47452611 36.68747169 -19.45659039 34.46872757 -19.4375 32.25 C-16.4675 32.25 -13.4975 32.25 -10.4375 32.25 C-10.44273682 31.31615479 -10.44797363 30.38230957 -10.45336914 29.42016602 C-10.4703762 25.96687204 -10.48293302 22.51362233 -10.49243164 19.06030273 C-10.49747121 17.56355082 -10.50430287 16.06680384 -10.51293945 14.57006836 C-10.52502159 12.42300193 -10.53073191 10.27600038 -10.53515625 8.12890625 C-10.54039307 6.8354126 -10.54562988 5.54191895 -10.55102539 4.20922852 C-10.31959478 -1.82339602 -4.89023139 0.02836973 0 0 Z " fill="#E7E6EA" transform="translate(616.4375,32.75)"/>
<path d="M0 0 C3.50256152 0.22842793 5.38930255 0.36894596 7.875 2.9375 C9 5 9 5 9 7 C13.7691411 5.80771472 17.85926723 4.20458837 22.203125 1.90234375 C25.73933303 0.12655233 28.57659717 -0.1283147 32.47265625 -0.1328125 C33.53677734 -0.13410156 34.60089844 -0.13539062 35.69726562 -0.13671875 C37.36305664 -0.13091797 37.36305664 -0.13091797 39.0625 -0.125 C40.17689453 -0.12886719 41.29128906 -0.13273437 42.43945312 -0.13671875 C44.03370117 -0.13478516 44.03370117 -0.13478516 45.66015625 -0.1328125 C47.12400757 -0.13112061 47.12400757 -0.13112061 48.61743164 -0.12939453 C51 0 51 0 53 1 C53.02888514 4.14581423 53.04675923 7.29159469 53.0625 10.4375 C53.07087891 11.33533203 53.07925781 12.23316406 53.08789062 13.15820312 C53.09111328 14.01220703 53.09433594 14.86621094 53.09765625 15.74609375 C53.10289307 16.53685303 53.10812988 17.3276123 53.11352539 18.14233398 C53 20 53 20 52 21 C50.58280518 21.12054086 49.16024575 21.17950172 47.73828125 21.2109375 C46.86623047 21.23929688 45.99417969 21.26765625 45.09570312 21.296875 C43.25995502 21.34840477 41.42399199 21.39283385 39.58789062 21.4296875 C33.48701291 21.64453866 29.03686983 22.48672842 24.1875 26.5 C21.91060156 29.37608224 21.86277847 32.21619905 21.81054688 35.73095703 C21.79382935 36.68849884 21.77711182 37.64604065 21.7598877 38.63259888 C21.74631226 39.66391937 21.73273682 40.69523987 21.71875 41.7578125 C21.70034058 42.81660614 21.68193115 43.87539978 21.66296387 44.96627808 C21.58415809 49.50459546 21.51635364 54.04306161 21.44775391 58.58154297 C21.39617905 61.89037771 21.33888367 65.19907867 21.28125 68.5078125 C21.26767456 69.54318146 21.25409912 70.57855042 21.2401123 71.64529419 C21.22339478 72.59653168 21.20667725 73.54776917 21.18945312 74.52783203 C21.17066101 75.79000046 21.17066101 75.79000046 21.15148926 77.07766724 C21 79 21 79 20 80 C17.03059297 80.12692296 14.09481743 80.18521201 11.125 80.1875 C10.29613281 80.19974609 9.46726562 80.21199219 8.61328125 80.22460938 C7.81535156 80.22654297 7.01742187 80.22847656 6.1953125 80.23046875 C5.46328613 80.23457764 4.73125977 80.23868652 3.97705078 80.24291992 C2 80 2 80 -1 78 C-1.29197743 75.49172672 -1.38896127 73.23021098 -1.35644531 70.72045898 C-1.35848969 69.97074829 -1.36053406 69.2210376 -1.36264038 68.4486084 C-1.36565482 65.96419082 -1.34715351 63.48043271 -1.328125 60.99609375 C-1.32506869 59.27499048 -1.3231916 57.55388475 -1.32244873 55.83277893 C-1.31784167 52.22379103 -1.30339941 48.61502577 -1.28125 45.00610352 C-1.25294608 40.36975894 -1.24203692 35.73358977 -1.2375679 31.09716702 C-1.23342007 27.54309824 -1.2236083 23.98906527 -1.21169281 20.43501472 C-1.20597818 18.72490795 -1.20122345 17.0147977 -1.19742584 15.30468559 C-1.19058481 12.91977701 -1.1769634 10.53501017 -1.16113281 8.15014648 C-1.16001495 7.43687698 -1.15889709 6.72360748 -1.15774536 5.98872375 C-1.11468757 1.11468757 -1.11468757 1.11468757 0 0 Z " fill="#E8E7EB" transform="translate(540,65)"/>
<path d="M0 0 C3.12498063 -0.02895976 6.2499269 -0.04678483 9.375 -0.0625 C10.70917969 -0.07506836 10.70917969 -0.07506836 12.0703125 -0.08789062 C13.34648438 -0.09272461 13.34648438 -0.09272461 14.6484375 -0.09765625 C15.43395996 -0.10289307 16.21948242 -0.10812988 17.02880859 -0.11352539 C19 0 19 0 21 1 C21 35.98 21 70.96 21 107 C14.73 107 8.46 107 2 107 C0 105 0 105 -0.24609566 103.11408043 C-0.24333028 101.95538665 -0.24333028 101.95538665 -0.24050903 100.77328491 C-0.24325836 99.88704941 -0.24600769 99.0008139 -0.24884033 98.08772278 C-0.24164978 97.11308578 -0.23445923 96.13844879 -0.22705078 95.13427734 C-0.22734283 94.10986038 -0.22763489 93.08544342 -0.22793579 92.02998352 C-0.22653849 88.63188307 -0.21095839 85.23399981 -0.1953125 81.8359375 C-0.1915838 79.48467122 -0.18873615 77.13340339 -0.18673706 74.78213501 C-0.17908938 68.58426649 -0.15943115 62.38649125 -0.1373291 56.18865967 C-0.11689509 49.86797345 -0.10774058 43.54727221 -0.09765625 37.2265625 C-0.07618633 24.81766728 -0.04203673 12.40884139 0 0 Z " fill="#E7E6EA" transform="translate(1145,38)"/>
<path d="M0 0 C0.84498047 -0.00128906 1.68996094 -0.00257812 2.56054688 -0.00390625 C3.44935547 -0.00003906 4.33816406 0.00382812 5.25390625 0.0078125 C6.13884766 0.00394531 7.02378906 0.00007813 7.93554688 -0.00390625 C8.78181641 -0.00261719 9.62808594 -0.00132813 10.5 0 C11.27915771 0.00112793 12.05831543 0.00225586 12.86108398 0.00341797 C14.81640625 0.1328125 14.81640625 0.1328125 16.81640625 1.1328125 C16.83953017 11.28547401 16.85732159 21.4381293 16.86821842 31.59081173 C16.87344714 36.30460983 16.88054459 41.01838997 16.8918457 45.73217773 C16.90267498 50.27736654 16.90868317 54.82253802 16.91128349 59.36773872 C16.91313767 61.10576208 16.91675814 62.84378444 16.92213631 64.58180046 C16.92934728 67.00759845 16.93039717 69.43332396 16.92993164 71.85913086 C16.93352692 72.58489319 16.93712219 73.31065552 16.94082642 74.05841064 C16.93045841 79.01876034 16.93045841 79.01876034 15.81640625 80.1328125 C12.84699922 80.25973546 9.91122368 80.31802451 6.94140625 80.3203125 C6.11253906 80.33255859 5.28367187 80.34480469 4.4296875 80.35742188 C3.63175781 80.35935547 2.83382812 80.36128906 2.01171875 80.36328125 C1.27969238 80.36739014 0.54766602 80.37149902 -0.20654297 80.37573242 C-2.18359375 80.1328125 -2.18359375 80.1328125 -5.18359375 78.1328125 C-5.47557118 75.62453922 -5.57255502 73.36302348 -5.54003906 70.85327148 C-5.54208344 70.10356079 -5.54412781 69.3538501 -5.54623413 68.5814209 C-5.54924857 66.09700332 -5.53074726 63.61324521 -5.51171875 61.12890625 C-5.50866244 59.40780298 -5.50678535 57.68669725 -5.50604248 55.96559143 C-5.50143542 52.35660353 -5.48699316 48.74783827 -5.46484375 45.13891602 C-5.43653983 40.50257144 -5.42563067 35.86640227 -5.42116165 31.22997952 C-5.41701382 27.67591074 -5.40720205 24.12187777 -5.39528656 20.56782722 C-5.38957193 18.85772045 -5.3848172 17.1476102 -5.38101959 15.43749809 C-5.37417856 13.05258951 -5.36055715 10.66782267 -5.34472656 8.28295898 C-5.3436087 7.56968948 -5.34249084 6.85641998 -5.34133911 6.12153625 C-5.28732847 0.00766518 -5.28732847 0.00766518 0 0 Z " fill="#E9E8EC" transform="translate(832.18359375,64.8671875)"/>
<path d="M0 0 C1.18439415 0.00136711 1.18439415 0.00136711 2.39271545 0.00276184 C3.2040242 -0.00152328 4.01533295 -0.00580841 4.85122681 -0.01022339 C6.56857876 -0.01597091 8.28595506 -0.01646385 10.00331116 -0.01213074 C12.63288391 -0.0089734 15.26132901 -0.03241439 17.89076233 -0.05778503 C19.55807861 -0.06005823 21.22539793 -0.06076143 22.89271545 -0.05973816 C23.68028732 -0.06894791 24.46785919 -0.07815765 25.27929688 -0.08764648 C28.16790839 -0.06313633 30.59330026 -0.00606338 33.20399475 1.30647278 C34.86051626 4.59778828 34.63533747 8.01736666 34.6075592 11.61994934 C34.61042938 12.43221481 34.61329956 13.24448029 34.61625671 14.08135986 C34.61829691 15.79694822 34.61277011 17.51255986 34.60023499 19.22810364 C34.58415925 21.859896 34.60009506 24.49015749 34.61927795 27.12190247 C34.61729592 28.78792149 34.61345307 30.45393956 34.6075592 32.11994934 C34.61666824 33.30434349 34.61666824 33.30434349 34.6259613 34.51266479 C34.5973053 36.72761536 34.5973053 36.72761536 34.2091217 40.30354309 C30.30672386 42.90514166 27.14596272 42.47644507 22.6388092 42.31526184 C21.80197601 42.29260757 20.96514282 42.26995331 20.10295105 42.24661255 C18.33594967 42.1966859 16.56908436 42.14172607 14.80238342 42.08210754 C12.08791632 41.99117021 9.37336883 41.91657604 6.65834045 41.84455872 C4.94346819 41.79408597 3.22862293 41.74268564 1.5138092 41.69026184 C0.69717804 41.66727524 -0.11945313 41.64428864 -0.96083069 41.62060547 C-6.6746719 41.41974949 -6.6746719 41.41974949 -7.7908783 40.30354309 C-7.90432979 37.51530571 -7.95506092 34.75276964 -7.95884705 31.96369934 C-7.96217545 31.12640793 -7.96550385 30.28911652 -7.96893311 29.42645264 C-7.97400586 27.65184582 -7.97634132 25.87722942 -7.97618103 24.10261536 C-7.97836627 21.38102053 -7.99651463 18.65983166 -8.01548767 15.93830872 C-8.01842172 14.21760698 -8.02040644 12.49690332 -8.02134705 10.77619934 C-8.02853256 9.95845535 -8.03571808 9.14071136 -8.04312134 8.29818726 C-8.01493018 1.35804034 -6.97856638 0.09100659 0 0 Z " fill="#E9E8EC" transform="translate(121.79087829589844,93.69645690917969)"/>
<path d="M0 0 C0.85948746 -0.00570007 1.71897491 -0.01140015 2.60450745 -0.01727295 C4.42618574 -0.0267368 6.24788126 -0.03326241 8.06958008 -0.03710938 C10.8637459 -0.0468223 13.65717867 -0.07783508 16.45117188 -0.109375 C18.21744353 -0.11590395 19.98372046 -0.12115485 21.75 -0.125 C23.00942665 -0.1435202 23.00942665 -0.1435202 24.29429626 -0.16241455 C26.65014648 -0.15332031 26.65014648 -0.15332031 30.44140625 0.203125 C32.95834363 3.97853108 32.71271245 6.96641611 32.671875 11.3359375 C32.67141678 12.1283786 32.67095856 12.9208197 32.67048645 13.73727417 C32.667468 15.40998841 32.65959386 17.08269993 32.6472168 18.75537109 C32.62892639 21.32529572 32.62670738 23.89486075 32.62695312 26.46484375 C32.62203913 28.0885448 32.61621132 29.7122434 32.609375 31.3359375 C32.60826218 32.10882111 32.60714935 32.88170471 32.60600281 33.67800903 C32.55746619 39.08706506 32.55746619 39.08706506 31.44140625 40.203125 C28.58046408 40.31661661 25.74457169 40.36730992 22.8828125 40.37109375 C22.02332504 40.37442215 21.16383759 40.37775055 20.27830505 40.38117981 C18.45661964 40.3862527 16.63492489 40.38858802 14.81323242 40.38842773 C12.01921335 40.39061303 9.22558968 40.40876144 6.43164062 40.42773438 C4.66536594 40.4306684 2.89908937 40.43265314 1.1328125 40.43359375 C0.29319473 40.44077927 -0.54642303 40.44796478 -1.41148376 40.45536804 C-7.32977194 40.43194681 -7.32977194 40.43194681 -9.55859375 38.203125 C-9.74612686 35.41802276 -9.81420607 32.73412854 -9.7890625 29.94921875 C-9.78860428 29.13316666 -9.78814606 28.31711456 -9.78767395 27.47633362 C-9.78465119 25.75056505 -9.77676417 24.02479922 -9.7644043 22.29907227 C-9.74614353 19.64785167 -9.74389461 16.99698004 -9.74414062 14.34570312 C-9.73922569 12.67187196 -9.73339748 10.99804318 -9.7265625 9.32421875 C-9.72544968 8.52632431 -9.72433685 7.72842987 -9.72319031 6.90635681 C-9.65329831 -1.13729123 -7.25150735 0.03661654 0 0 Z " fill="#E8E7EB" transform="translate(123.55859375,144.796875)"/>
<path d="M0 0 C1.22264305 -0.0049926 1.22264305 -0.0049926 2.46998596 -0.01008606 C4.19751418 -0.01515867 5.92505223 -0.01749428 7.65258789 -0.01733398 C10.3017587 -0.01951917 12.95051241 -0.03766746 15.59960938 -0.05664062 C17.27473815 -0.05957469 18.94986892 -0.0615594 20.625 -0.0625 C21.42087021 -0.06968552 22.21674042 -0.07687103 23.03672791 -0.08427429 C28.65008398 -0.06085352 28.65008398 -0.06085352 30.87890625 2.16796875 C31.06651655 5.02511339 31.13447943 7.78362861 31.109375 10.640625 C31.10891678 11.47887314 31.10845856 12.31712128 31.10798645 13.18077087 C31.10496349 14.9536175 31.09707588 16.72646146 31.0847168 18.49926758 C31.0664569 21.22291397 31.0642071 23.94622067 31.06445312 26.66992188 C31.05953817 28.38932588 31.05370995 30.10872756 31.046875 31.828125 C31.04576218 32.64789322 31.04464935 33.46766144 31.04350281 34.31227112 C30.99495426 40.05192074 30.99495426 40.05192074 29.87890625 41.16796875 C27.16533827 41.35291116 24.4751088 41.4764047 21.7578125 41.5546875 C20.53516945 41.59297417 20.53516945 41.59297417 19.28782654 41.6320343 C17.56036912 41.68413231 15.83282908 41.73354828 14.10522461 41.78051758 C11.45575193 41.85506511 8.8071407 41.94569873 6.15820312 42.03710938 C4.48310131 42.08562575 2.8079714 42.13318373 1.1328125 42.1796875 C-0.06099281 42.22327644 -0.06099281 42.22327644 -1.27891541 42.26774597 C-3.22607818 42.31248892 -5.17512355 42.24948432 -7.12109375 42.16796875 C-9.76130915 39.52775335 -9.35912098 37.61303935 -9.37333679 34.02085876 C-9.36615128 33.181241 -9.35896576 32.34162323 -9.3515625 31.4765625 C-9.35110428 30.61611832 -9.35064606 29.75567413 -9.35017395 28.86915588 C-9.3471508 27.04923118 -9.33926263 25.22930908 -9.3269043 23.40942383 C-9.30864523 20.61335151 -9.3063946 17.81761009 -9.30664062 15.02148438 C-9.30172565 13.25650753 -9.29589742 11.49153295 -9.2890625 9.7265625 C-9.28794968 8.8849205 -9.28683685 8.0432785 -9.28569031 7.1761322 C-9.21918167 -0.89555944 -7.36076104 0.01026605 0 0 Z " fill="#E8E7EB" transform="translate(74.12109375,93.83203125)"/>
<path d="M0 0 C2.125 1.1875 2.125 1.1875 3.4375 3.75 C3.7778125 4.9565625 3.7778125 4.9565625 4.125 6.1875 C4.785 6.1875 5.445 6.1875 6.125 6.1875 C6.2796875 7.1465625 6.2796875 7.1465625 6.4375 8.125 C6.664375 8.805625 6.89125 9.48625 7.125 10.1875 C8.115 10.5175 9.105 10.8475 10.125 11.1875 C12.74375142 14.67916855 14.67322555 18.07413907 16.125 22.1875 C16.785 22.1875 17.445 22.1875 18.125 22.1875 C20.87278884 25.76795212 22.59468862 28.6798533 23.125 33.1875 C22.09375 33.744375 21.0625 34.30125 20 34.875 C17.35410716 36.36097618 15.17326697 37.95292947 12.9375 40 C10.125 42.1875 10.125 42.1875 7.75 42 C7.21375 41.731875 6.6775 41.46375 6.125 41.1875 C6.62 43.1675 6.62 43.1675 7.125 45.1875 C6.1659375 45.3421875 6.1659375 45.3421875 5.1875 45.5 C4.506875 45.726875 3.82625 45.95375 3.125 46.1875 C2.795 47.1775 2.465 48.1675 2.125 49.1875 C-1.52914741 52.01115936 -4.358558 53.43475967 -8.875 54.1875 C-10.04749353 52.73384731 -11.21283816 51.27442581 -12.375 49.8125 C-13.34953125 48.59433594 -13.34953125 48.59433594 -14.34375 47.3515625 C-15.875 45.1875 -15.875 45.1875 -15.875 43.1875 C-16.865 42.8575 -17.855 42.5275 -18.875 42.1875 C-21.875 37.85416667 -21.875 37.85416667 -21.875 35.1875 C-22.535 35.1875 -23.195 35.1875 -23.875 35.1875 C-26.875 30.80288462 -26.875 30.80288462 -26.875 28.1875 C-27.514375 27.94 -28.15375 27.6925 -28.8125 27.4375 C-30.875 26.1875 -30.875 26.1875 -31.50390625 24.109375 C-31.62636719 23.47515625 -31.74882812 22.8409375 -31.875 22.1875 C-29.75441855 20.51492872 -27.62895924 18.84934582 -25.5 17.1875 C-24.89671875 16.71054688 -24.2934375 16.23359375 -23.671875 15.7421875 C-19.1015625 12.1875 -19.1015625 12.1875 -16.875 12.1875 C-16.875 11.5275 -16.875 10.8675 -16.875 10.1875 C-15.51082655 9.23257859 -14.13679317 8.28939505 -12.72265625 7.41015625 C-10.63220237 6.02683265 -8.75236019 4.46148907 -6.8125 2.875 C-3.28015705 0.21392329 -3.28015705 0.21392329 0 0 Z " fill="#E7E6E9" transform="translate(212.875,61.8125)"/>
<path d="M0 0 C6.59503818 -0.99226258 12.24934744 -1.51017861 17.87109375 2.34375 C20.88103551 4.66014416 23.70169592 7.17263134 26.50952148 9.7277832 C28.51706807 11.44134999 30.6996559 12.7175782 33 14 C34.34631825 14.98244845 35.68441297 15.97676564 37 17 C36.42415568 19.38564077 35.77772405 21.66682784 35 24 C34.34 24 33.68 24 33 24 C32.72414062 24.73992188 32.44828125 25.47984375 32.1640625 26.2421875 C28.49695541 34.9300318 21.63132445 44.36867555 15 51 C11.40797757 49.39125062 8.49221068 47.2018132 5.375 44.8125 C-1.09614964 39.89199934 -7.62742755 35.06249689 -14.5625 30.8125 C-17 29 -17 29 -17.83984375 27.14453125 C-18.06673903 24.10634807 -16.95703931 23.16102437 -15 20.875 C-12.22923454 17.520037 -9.61508968 14.13231736 -7.125 10.5625 C-6.55007812 9.73878906 -5.97515625 8.91507813 -5.3828125 8.06640625 C-3.97806092 6.06092517 -3.97806092 6.06092517 -3 4 C-2.34 4 -1.68 4 -1 4 C-0.67 2.68 -0.34 1.36 0 0 Z M32 21 C33 24 33 24 33 24 Z M20 39 C20.33 39.99 20.66 40.98 21 42 C21.33 41.01 21.66 40.02 22 39 C21.34 39 20.68 39 20 39 Z M13 47 C13 47.66 13 48.32 13 49 C13.66 48.67 14.32 48.34 15 48 C14.34 47.67 13.68 47.34 13 47 Z " fill="#E6E5E9" transform="translate(163,0)"/>
<path d="M0 0 C5.37515933 -0.02467759 10.75028585 -0.04284928 16.12548828 -0.05493164 C17.95492121 -0.05996737 19.78435009 -0.06679627 21.61376953 -0.07543945 C24.23991898 -0.08753824 26.86601532 -0.09323583 29.4921875 -0.09765625 C30.31306854 -0.10281754 31.13394958 -0.10797882 31.97970581 -0.11329651 C37.77225659 -0.11387171 37.77225659 -0.11387171 40 1 C40.02464849 6.39346988 40.04283531 11.78690725 40.05493164 17.18041992 C40.05997231 19.01668875 40.06680477 20.85295354 40.07543945 22.68920898 C40.08751672 25.32276401 40.09323081 27.95626616 40.09765625 30.58984375 C40.10281754 31.41588608 40.10797882 32.24192841 40.11329651 33.09300232 C40.11349205 35.06236368 40.06204152 37.03161614 40 39 C37.95486947 41.04513053 33.69094822 40.16404679 30.87890625 40.16796875 C29.6562632 40.17296135 29.6562632 40.17296135 28.40892029 40.17805481 C26.68139207 40.18312742 24.95385402 40.18546303 23.22631836 40.18530273 C20.57714755 40.18748792 17.92839384 40.20563621 15.27929688 40.22460938 C13.6041681 40.22754344 11.92903733 40.22952815 10.25390625 40.23046875 C9.45803604 40.23765427 8.66216583 40.24483978 7.84217834 40.25224304 C2.22882227 40.22882227 2.22882227 40.22882227 0 38 C-0.17532289 35.13111419 -0.23137614 32.36007355 -0.1953125 29.4921875 C-0.1924826 28.65156769 -0.18965271 27.81094788 -0.18673706 26.94485474 C-0.1755243 24.25475954 -0.15041803 21.5649949 -0.125 18.875 C-0.1149716 17.05339022 -0.10584551 15.23177523 -0.09765625 13.41015625 C-0.07558142 8.93997642 -0.04104434 4.47004429 0 0 Z " fill="#E7E6EA" transform="translate(165,145)"/>
<path d="M0 0 C5.37515933 -0.02467759 10.75028585 -0.04284928 16.12548828 -0.05493164 C17.95492121 -0.05996737 19.78435009 -0.06679627 21.61376953 -0.07543945 C24.23991898 -0.08753824 26.86601532 -0.09323583 29.4921875 -0.09765625 C30.31306854 -0.10281754 31.13394958 -0.10797882 31.97970581 -0.11329651 C37.77225659 -0.11387171 37.77225659 -0.11387171 40 1 C40.02464849 6.39346988 40.04283531 11.78690725 40.05493164 17.18041992 C40.05997231 19.01668875 40.06680477 20.85295354 40.07543945 22.68920898 C40.08751672 25.32276401 40.09323081 27.95626616 40.09765625 30.58984375 C40.10281754 31.41588608 40.10797882 32.24192841 40.11329651 33.09300232 C40.11349205 35.06236368 40.06204152 37.03161614 40 39 C37.95486947 41.04513053 33.69094822 40.16404679 30.87890625 40.16796875 C29.6562632 40.17296135 29.6562632 40.17296135 28.40892029 40.17805481 C26.68139207 40.18312742 24.95385402 40.18546303 23.22631836 40.18530273 C20.57714755 40.18748792 17.92839384 40.20563621 15.27929688 40.22460938 C13.6041681 40.22754344 11.92903733 40.22952815 10.25390625 40.23046875 C9.45803604 40.23765427 8.66216583 40.24483978 7.84217834 40.25224304 C2.22882227 40.22882227 2.22882227 40.22882227 0 38 C-0.17532289 35.13111419 -0.23137614 32.36007355 -0.1953125 29.4921875 C-0.1924826 28.65156769 -0.18965271 27.81094788 -0.18673706 26.94485474 C-0.1755243 24.25475954 -0.15041803 21.5649949 -0.125 18.875 C-0.1149716 17.05339022 -0.10584551 15.23177523 -0.09765625 13.41015625 C-0.07558142 8.93997642 -0.04104434 4.47004429 0 0 Z " fill="#E7E6EA" transform="translate(65,145)"/>
<path d="M0 0 C5.37515933 -0.02467759 10.75028585 -0.04284928 16.12548828 -0.05493164 C17.95492121 -0.05996737 19.78435009 -0.06679627 21.61376953 -0.07543945 C24.23991898 -0.08753824 26.86601532 -0.09323583 29.4921875 -0.09765625 C30.31306854 -0.10281754 31.13394958 -0.10797882 31.97970581 -0.11329651 C37.77225659 -0.11387171 37.77225659 -0.11387171 40 1 C40.02464849 6.39346988 40.04283531 11.78690725 40.05493164 17.18041992 C40.05997231 19.01668875 40.06680477 20.85295354 40.07543945 22.68920898 C40.08751672 25.32276401 40.09323081 27.95626616 40.09765625 30.58984375 C40.10281754 31.41588608 40.10797882 32.24192841 40.11329651 33.09300232 C40.11349205 35.06236368 40.06204152 37.03161614 40 39 C37.95486947 41.04513053 33.69094822 40.16404679 30.87890625 40.16796875 C29.6562632 40.17296135 29.6562632 40.17296135 28.40892029 40.17805481 C26.68139207 40.18312742 24.95385402 40.18546303 23.22631836 40.18530273 C20.57714755 40.18748792 17.92839384 40.20563621 15.27929688 40.22460938 C13.6041681 40.22754344 11.92903733 40.22952815 10.25390625 40.23046875 C9.45803604 40.23765427 8.66216583 40.24483978 7.84217834 40.25224304 C2.22882227 40.22882227 2.22882227 40.22882227 0 38 C-0.17532289 35.13111419 -0.23137614 32.36007355 -0.1953125 29.4921875 C-0.1924826 28.65156769 -0.18965271 27.81094788 -0.18673706 26.94485474 C-0.1755243 24.25475954 -0.15041803 21.5649949 -0.125 18.875 C-0.1149716 17.05339022 -0.10584551 15.23177523 -0.09765625 13.41015625 C-0.07558142 8.93997642 -0.04104434 4.47004429 0 0 Z " fill="#E7E6EA" transform="translate(65,45)"/>
<path d="M0 0 C13.2 0 26.4 0 40 0 C40.020625 3.939375 40.04125 7.87875 40.0625 11.9375 C40.071604 13.18136475 40.08070801 14.42522949 40.09008789 15.70678711 C40.09258545 16.6788208 40.09508301 17.65085449 40.09765625 18.65234375 C40.10289307 19.65257568 40.10812988 20.65280762 40.11352539 21.68334961 C40 24 40 24 39 25 C36.28445608 25.11340974 33.59529957 25.1641802 30.87890625 25.16796875 C29.6562632 25.17296135 29.6562632 25.17296135 28.40892029 25.17805481 C26.68139207 25.18312742 24.95385402 25.18546303 23.22631836 25.18530273 C20.57714755 25.18748792 17.92839384 25.20563621 15.27929688 25.22460938 C13.6041681 25.22754344 11.92903733 25.22952815 10.25390625 25.23046875 C9.06010094 25.24124702 9.06010094 25.24124702 7.84217834 25.25224304 C2.22882227 25.22882227 2.22882227 25.22882227 0 23 C-0.22705078 20.66162109 -0.22705078 20.66162109 -0.1953125 17.7734375 C-0.19031738 16.84450684 -0.18532227 15.91557617 -0.18017578 14.95849609 C-0.16196777 13.77594238 -0.14375977 12.59338867 -0.125 11.375 C-0.08375 7.62125 -0.0425 3.8675 0 0 Z " fill="#E8E7EB" transform="translate(225,0)"/>
<path d="M0 0 C4.21249335 2.1543683 7.21451624 4.67071979 9.625 8.75 C10.16147745 13.39947127 9.15601599 17.50043006 8 22 C7.34 22 6.68 22 6 22 C5.67 22.99 5.34 23.98 5 25 C1.54449421 27.21603089 -1.57491527 27.58745987 -5.609375 27.52734375 C-10.07286602 26.54275014 -13.04022302 23.33729956 -16 20 C-17.73704155 16.5259169 -17.46041616 12.79843331 -17 9 C-13.464907 1.929814 -8.06230619 -1.81956635 0 0 Z M-6 24 C-6 24.33 -6 24.66 -6 25 C-4.02 25 -2.04 25 0 25 C0 24.67 0 24.34 0 24 C-1.98 24 -3.96 24 -6 24 Z " fill="#E7E6EA" transform="translate(842,30)"/>
<path d="M0 0 C3.12498063 -0.02895976 6.2499269 -0.04678483 9.375 -0.0625 C10.70917969 -0.07506836 10.70917969 -0.07506836 12.0703125 -0.08789062 C13.34648438 -0.09272461 13.34648438 -0.09272461 14.6484375 -0.09765625 C15.43395996 -0.10289307 16.21948242 -0.10812988 17.02880859 -0.11352539 C19 0 19 0 21 1 C21 35.98 21 70.96 21 107 C14.73 107 8.46 107 2 107 C0 105 0 105 -0.24609566 103.11408043 C-0.24333028 101.95538665 -0.24333028 101.95538665 -0.24050903 100.77328491 C-0.24325836 99.88704941 -0.24600769 99.0008139 -0.24884033 98.08772278 C-0.24164978 97.11308578 -0.23445923 96.13844879 -0.22705078 95.13427734 C-0.22734283 94.10986038 -0.22763489 93.08544342 -0.22793579 92.02998352 C-0.22653849 88.63188307 -0.21095839 85.23399981 -0.1953125 81.8359375 C-0.1915838 79.48467122 -0.18873615 77.13340339 -0.18673706 74.78213501 C-0.17908938 68.58426649 -0.15943115 62.38649125 -0.1373291 56.18865967 C-0.11689509 49.86797345 -0.10774058 43.54727221 -0.09765625 37.2265625 C-0.07618633 24.81766728 -0.04203673 12.40884139 0 0 Z M2 2 C2 36.32 2 70.64 2 106 C7.94 106 13.88 106 20 106 C20 71.68 20 37.36 20 2 C14.06 2 8.12 2 2 2 Z " fill="#F3F2F5" transform="translate(1145,38)"/>
<path d="M0 0 C0.66 0 1.32 0 2 0 C2 25.08 2 50.16 2 76 C1.01 75.67 0.02 75.34 -1 75 C-1.02312465 65.36887288 -1.04091571 55.73775526 -1.05181217 46.10660648 C-1.05704074 41.63494451 -1.06413789 37.16330147 -1.07543945 32.69165039 C-1.08626929 28.37988027 -1.09227704 24.06812841 -1.09487724 19.75634575 C-1.09673132 18.10763702 -1.1003516 16.45892934 -1.10573006 14.81022835 C-1.11294178 12.50896128 -1.11399089 10.2077706 -1.11352539 7.90649414 C-1.115746 6.5941127 -1.11796661 5.28173126 -1.12025452 3.92958069 C-1 1 -1 1 0 0 Z " fill="#F6F5F7" transform="translate(828,68)"/>
<path d="M0 0 C1.67542976 0.28604898 3.34385343 0.61781233 5 1 C4.01 1.66 3.02 2.32 2 3 C1.71327639 5.48425883 1.6213227 7.71860892 1.65942383 10.20361328 C1.65898575 10.9451767 1.65854767 11.68674011 1.65809631 12.45077515 C1.66019021 14.90755331 1.68354875 17.36365322 1.70703125 19.8203125 C1.71262509 21.52138903 1.71689619 23.22247038 1.71989441 24.92355347 C1.73135996 29.4051849 1.76084165 33.88652559 1.79400635 38.36804199 C1.82467052 42.93933173 1.83839191 47.51066835 1.85351562 52.08203125 C1.88570987 61.05481539 1.93692671 70.02738354 2 79 C1.01 78.67 0.02 78.34 -1 78 C-1.0231241 67.97772237 -1.04091543 57.95545103 -1.05181217 47.9331522 C-1.05704085 43.27988814 -1.06413823 38.62664226 -1.07543945 33.97338867 C-1.08626886 29.48655454 -1.09227695 24.99973796 -1.09487724 20.51289177 C-1.0967314 18.79719707 -1.10035182 17.08150338 -1.10573006 15.36581612 C-1.11294121 12.97115087 -1.11399091 10.57655904 -1.11352539 8.18188477 C-1.11712067 7.46547318 -1.12071594 6.74906158 -1.12442017 6.01094055 C-1.11405216 1.11405216 -1.11405216 1.11405216 0 0 Z " fill="#F2F1F4" transform="translate(540,65)"/>
<path d="M0 0 C0.89432739 -0.00630432 1.78865479 -0.01260864 2.71008301 -0.019104 C4.16166809 -0.01303131 4.16166809 -0.01303131 5.64257812 -0.00683594 C6.6338269 -0.00874939 7.62507568 -0.01066284 8.6463623 -0.01263428 C10.7445501 -0.01399679 12.84274631 -0.01029576 14.94091797 -0.00195312 C18.16067358 0.00874535 21.37987121 -0.0018463 24.59960938 -0.01464844 C26.63476686 -0.01332685 28.669924 -0.01076449 30.70507812 -0.00683594 C31.67280151 -0.0108844 32.6405249 -0.01493286 33.63757324 -0.019104 C34.53190063 -0.01279968 35.42622803 -0.00649536 36.34765625 0 C37.13660278 0.00159119 37.92554932 0.00318237 38.73840332 0.00482178 C40.67382812 0.25878906 40.67382812 0.25878906 42.67382812 2.25878906 C41.67382812 3.25878906 41.67382812 3.25878906 39.80723572 3.37904358 C38.99227127 3.37682297 38.17730682 3.37460236 37.33764648 3.37231445 C35.9563279 3.37220116 35.9563279 3.37220116 34.54710388 3.37208557 C33.54607132 3.36692429 32.54503876 3.361763 31.51367188 3.35644531 C30.49406876 3.35503036 29.47446564 3.35361542 28.42396545 3.35215759 C25.15305705 3.34654003 21.88221599 3.33398456 18.61132812 3.32128906 C16.39974057 3.31627632 14.18815194 3.31171303 11.9765625 3.30761719 C6.54229158 3.29656489 1.10807129 3.2792885 -4.32617188 3.25878906 C-4.32617188 9.19878906 -4.32617188 15.13878906 -4.32617188 21.25878906 C-4.98617187 20.92878906 -5.64617188 20.59878906 -6.32617188 20.25878906 C-6.37996413 17.30021497 -6.4197428 14.34261185 -6.45117188 11.38378906 C-6.46792969 10.54203125 -6.4846875 9.70027344 -6.50195312 8.83300781 C-6.50839844 8.02734375 -6.51484375 7.22167969 -6.52148438 6.39160156 C-6.53719482 5.27615967 -6.53719482 5.27615967 -6.55322266 4.13818359 C-6.05957001 0.0520136 -3.47678104 0.00701214 0 0 Z " fill="#F7F6F9" transform="translate(752.326171875,122.7412109375)"/>
<path d="M0 0 C0.93429337 -0.00315216 1.86858673 -0.00630432 2.83119202 -0.009552 C4.34065651 -0.00651566 4.34065651 -0.00651566 5.88061523 -0.00341797 C7.43195412 -0.00485306 7.43195412 -0.00485306 9.01463318 -0.00631714 C11.20099956 -0.00699775 13.38736797 -0.00515177 15.57373047 -0.00097656 C18.92932649 0.00437876 22.28478898 -0.0009284 25.64038086 -0.00732422 C27.76212595 -0.00666352 29.88387095 -0.00538254 32.00561523 -0.00341797 C33.51811607 -0.00645432 33.51811607 -0.00645432 35.06117249 -0.009552 C36.45788429 -0.00482376 36.45788429 -0.00482376 37.8828125 0 C38.70427261 0.00079559 39.52573273 0.00159119 40.37208557 0.00241089 C42.37670898 0.12939453 42.37670898 0.12939453 44.37670898 1.12939453 C44.37670898 7.39939453 44.37670898 13.66939453 44.37670898 20.12939453 C44.04670898 20.12939453 43.71670898 20.12939453 43.37670898 20.12939453 C43.37670898 14.51939453 43.37670898 8.90939453 43.37670898 3.12939453 C26.54670898 3.12939453 9.71670898 3.12939453 -7.62329102 3.12939453 C-7.62329102 2.46939453 -7.62329102 1.80939453 -7.62329102 1.12939453 C-4.75913654 0.17467637 -2.97199089 0.00287562 0 0 Z " fill="#C8C7CA" transform="translate(768.623291015625,64.87060546875)"/>
<path d="M0 0 C1.32 0.66 2.64 1.32 4 2 C3.67 27.41 3.34 52.82 3 79 C0.525 79.495 0.525 79.495 -2 80 C-1.51013107 79.6578093 -1.02026215 79.31561859 -0.51554871 78.96305847 C1.74263525 76.03808013 1.34920592 73.12814575 1.2487793 69.59106445 C1.23946381 68.83960144 1.23014832 68.08813843 1.22055054 67.31390381 C1.18617349 64.82990484 1.13028214 62.34687761 1.07421875 59.86328125 C1.04618664 58.14123097 1.01949612 56.41915836 0.99409485 54.69706726 C0.92362397 50.16431018 0.83490833 45.63208585 0.74243164 41.09973145 C0.65128349 36.47487417 0.57733509 31.84974574 0.50195312 27.22460938 C0.35149939 18.1493906 0.18177616 9.07464163 0 0 Z " fill="#F9F8FA" transform="translate(520,65)"/>
<path d="M0 0 C2.475 0.495 2.475 0.495 5 1 C4.01 1.33 3.02 1.66 2 2 C2 27.41 2 52.82 2 79 C1.34 78.67 0.68 78.34 0 78 C0 52.26 0 26.52 0 0 Z " fill="#F1F0F3" transform="translate(957,65)"/>
<path d="M0 0 C1.56047445 0.00015913 3.12095416 0.00585397 4.68139648 0.01586914 C5.91115456 0.01799156 5.91115456 0.01799156 7.16575623 0.02015686 C9.79470406 0.0257725 12.42356797 0.0383276 15.05249023 0.05102539 C16.8304838 0.05603838 18.60847869 0.06060163 20.38647461 0.06469727 C24.75434569 0.07574701 29.12215371 0.09302208 33.48999023 0.11352539 C33.98499023 1.10352539 33.98499023 1.10352539 34.48999023 2.11352539 C22.27999023 2.11352539 10.06999023 2.11352539 -2.51000977 2.11352539 C-2.51000977 14.98352539 -2.51000977 27.85352539 -2.51000977 41.11352539 C-3.17000977 40.78352539 -3.83000977 40.45352539 -4.51000977 40.11352539 C-4.53465752 34.57764006 -4.55284472 29.04178639 -4.56494141 23.50585938 C-4.56998221 21.62108809 -4.57681475 19.73632074 -4.58544922 17.8515625 C-4.59752594 15.14850903 -4.60324045 12.44550708 -4.60766602 9.74243164 C-4.6128273 8.89451553 -4.61798859 8.04659943 -4.62330627 7.17298889 C-4.62350171 5.15281471 -4.57207187 3.13274605 -4.51000977 1.11352539 C-3.51000977 0.11352539 -3.51000977 0.11352539 0 0 Z " fill="#F1F0F3" transform="translate(69.510009765625,93.886474609375)"/>
<path d="M0 0 C3.12482562 -0.08687496 6.24934246 -0.14034568 9.375 -0.1875 C10.70917969 -0.22520508 10.70917969 -0.22520508 12.0703125 -0.26367188 C13.34648438 -0.27817383 13.34648438 -0.27817383 14.6484375 -0.29296875 C15.82672119 -0.31653442 15.82672119 -0.31653442 17.02880859 -0.34057617 C17.67930176 -0.22818604 18.32979492 -0.1157959 19 0 C21.42451075 3.63676612 21.17129076 5.11447415 20.9765625 9.41796875 C20.925 10.67158203 20.8734375 11.92519531 20.8203125 13.21679688 C20.75585938 14.52712891 20.69140625 15.83746094 20.625 17.1875 C20.56674184 18.52274464 20.50943894 19.85803133 20.453125 21.19335938 C20.31149461 24.46266087 20.15696074 27.73139866 20 31 C32.87 31.495 32.87 31.495 46 32 C46 32.33 46 32.66 46 33 C41.70845978 33.0867562 37.41714332 33.1403089 33.125 33.1875 C31.29001953 33.22520508 31.29001953 33.22520508 29.41796875 33.26367188 C27.66806641 33.27817383 27.66806641 33.27817383 25.8828125 33.29296875 C24.26463623 33.31653442 24.26463623 33.31653442 22.61376953 33.34057617 C21.75122559 33.22818604 20.88868164 33.1157959 20 33 C17.70825923 29.56238884 17.70475953 28.07928385 17.5859375 24.01953125 C17.54726563 22.85615234 17.50859375 21.69277344 17.46875 20.49414062 C17.4378125 19.27919922 17.406875 18.06425781 17.375 16.8125 C17.33632813 15.58595703 17.29765625 14.35941406 17.2578125 13.09570312 C17.16344206 10.06405285 17.08062826 7.03204688 17 4 C11.72 3.67 6.44 3.34 1 3 C0.67 2.01 0.34 1.02 0 0 Z " fill="#E2E1E3" transform="translate(607,33)"/>
<path d="M0 0 C3.3 0.33 6.6 0.66 10 1 C10 1.33 10 1.66 10 2 C7.36 2 4.72 2 2 2 C2 7.94 2 13.88 2 20 C4.64 20 7.28 20 10 20 C11.92016791 21.92016791 11.22233499 25.40942702 11.28125 27.95703125 C11.30886414 29.00608894 11.30886414 29.00608894 11.33703613 30.07633972 C11.39594972 32.32163859 11.44865546 34.56701606 11.5 36.8125 C11.56779851 39.75666597 11.64157416 42.70059797 11.71875 45.64453125 C11.74904297 46.95784424 11.77933594 48.27115723 11.81054688 49.62426758 C11.95974505 52.28272533 12.21017995 54.47825168 13 57 C12.67 56.34 12.34 55.68 12 55 C11.34 55 10.68 55 10 55 C8.5235764 52.0471528 8.77727061 49.31551017 8.68359375 46.0234375 C8.66281265 45.33819 8.64203156 44.6529425 8.62062073 43.94692993 C8.55519815 41.75638931 8.49627446 39.56572811 8.4375 37.375 C8.39430782 35.8906125 8.3506933 34.40623722 8.30664062 32.921875 C8.19952447 29.28137916 8.09823638 25.64074749 8 22 C6.865625 21.87625 5.73125 21.7525 4.5625 21.625 C3.386875 21.41875 2.21125 21.2125 1 21 C-0.17426264 18.65147472 -0.11508173 17.26225935 -0.09765625 14.6484375 C-0.09443359 13.79765625 -0.09121094 12.946875 -0.08789062 12.0703125 C-0.07951172 11.18085937 -0.07113281 10.29140625 -0.0625 9.375 C-0.05798828 8.4778125 -0.05347656 7.580625 -0.04882812 6.65625 C-0.03702611 4.43747169 -0.01909039 2.21872757 0 0 Z " fill="#F2F1F4" transform="translate(597,65)"/>
<path d="M0 0 C5.51754805 -0.07402793 11.03480856 -0.12854366 16.55273438 -0.16479492 C18.43071526 -0.17990325 20.30866076 -0.20039094 22.18652344 -0.22631836 C24.88225019 -0.26261246 27.57751146 -0.27970545 30.2734375 -0.29296875 C31.11619232 -0.30845261 31.95894714 -0.32393646 32.82723999 -0.33988953 C35.19287109 -0.34057617 35.19287109 -0.34057617 39 0 C39.66 0.99 40.32 1.98 41 3 C36.8804152 4.16380158 32.97744716 4.0285021 28.734375 3.87890625 C27.94097717 3.85529526 27.14757935 3.83168427 26.33013916 3.80735779 C23.80323317 3.73096071 21.27665233 3.64683387 18.75 3.5625 C17.03386992 3.5092553 15.31772412 3.45651507 13.6015625 3.40429688 C9.40083689 3.27537813 5.20038608 3.13952774 1 3 C0.67 2.01 0.34 1.02 0 0 Z " fill="#C3C2C4" transform="translate(115,145)"/>
<path d="M0 0 C2.97 0.495 2.97 0.495 6 1 C6 26.74 6 52.48 6 79 C5.67 79 5.34 79 5 79 C5 53.59 5 28.18 5 2 C3.02 2.33 1.04 2.66 -1 3 C-0.67 2.01 -0.34 1.02 0 0 Z " fill="#F8F7F9" transform="translate(935,65)"/>
<path d="M0 0 C0.47566406 0.28875 0.95132813 0.5775 1.44140625 0.875 C0.78140625 1.535 0.12140625 2.195 -0.55859375 2.875 C-1.37457031 2.54886719 -2.19054687 2.22273438 -3.03125 1.88671875 C-7.16290855 0.7016694 -10.73131829 0.61585479 -14.99609375 0.6875 C-15.72119141 0.68814453 -16.44628906 0.68878906 -17.19335938 0.68945312 C-21.73877518 0.72620851 -26.07389151 1.13641267 -30.55859375 1.875 C-30.55859375 1.215 -30.55859375 0.555 -30.55859375 -0.125 C-20.94666958 -4.83288123 -9.51805251 -5.04824884 0 0 Z " fill="#F3F2F5" transform="translate(1007.55859375,66.125)"/>
<path d="M0 0 C1.20978516 -0.020625 2.41957031 -0.04125 3.66601562 -0.0625 C5.39561523 -0.07023437 5.39561523 -0.07023437 7.16015625 -0.078125 C8.74969116 -0.09214355 8.74969116 -0.09214355 10.37133789 -0.10644531 C11.21817139 0.01118164 12.06500488 0.12880859 12.9375 0.25 C13.5975 1.24 14.2575 2.23 14.9375 3.25 C11.00484104 3.29947698 7.07230286 3.33575578 3.1394043 3.35986328 C1.14430382 3.37485495 -0.85070946 3.40026731 -2.84570312 3.42578125 C-4.09931641 3.43222656 -5.35292969 3.43867187 -6.64453125 3.4453125 C-7.80186768 3.45578613 -8.9592041 3.46625977 -10.15161133 3.47705078 C-13.0625 3.25 -13.0625 3.25 -16.0625 1.25 C-10.88614162 -0.47545279 -5.41837163 0.02316781 0 0 Z " fill="#F8F7F9" transform="translate(786.0625,94.75)"/>
<path d="M0 0 C11.88 0 23.76 0 36 0 C36 0.33 36 0.66 36 1 C35.00556885 1.02505615 34.0111377 1.0501123 32.98657227 1.07592773 C29.30951253 1.16984882 25.6326485 1.27010619 21.95581055 1.37231445 C20.362107 1.41572146 18.7683552 1.45739219 17.17456055 1.49731445 C14.88836092 1.55487807 12.60240551 1.61861149 10.31640625 1.68359375 C9.2413961 1.70866249 9.2413961 1.70866249 8.14466858 1.73423767 C4.78472618 1.55018654 4.78472618 1.55018654 2 3 C1.84011509 5.51880517 1.74065775 8.01342266 1.68359375 10.53515625 C1.66281265 11.28840683 1.64203156 12.04165741 1.62062073 12.81773376 C1.55504575 15.2325599 1.49620379 17.64749798 1.4375 20.0625 C1.3943223 21.69597529 1.35070827 23.3294391 1.30664062 24.96289062 C1.19935638 28.97514464 1.09811179 32.98751164 1 37 C0.67 37 0.34 37 0 37 C0 24.79 0 12.58 0 0 Z " fill="#C8C7CA" transform="translate(165,145)"/>
<path d="M0 0 C11.88 0 23.76 0 36 0 C36 0.33 36 0.66 36 1 C35.00556885 1.02505615 34.0111377 1.0501123 32.98657227 1.07592773 C29.30951253 1.16984882 25.6326485 1.27010619 21.95581055 1.37231445 C20.362107 1.41572146 18.7683552 1.45739219 17.17456055 1.49731445 C14.88836092 1.55487807 12.60240551 1.61861149 10.31640625 1.68359375 C9.2413961 1.70866249 9.2413961 1.70866249 8.14466858 1.73423767 C4.78472618 1.55018654 4.78472618 1.55018654 2 3 C1.84011509 5.51880517 1.74065775 8.01342266 1.68359375 10.53515625 C1.66281265 11.28840683 1.64203156 12.04165741 1.62062073 12.81773376 C1.55504575 15.2325599 1.49620379 17.64749798 1.4375 20.0625 C1.3943223 21.69597529 1.35070827 23.3294391 1.30664062 24.96289062 C1.19935638 28.97514464 1.09811179 32.98751164 1 37 C0.67 37 0.34 37 0 37 C0 24.79 0 12.58 0 0 Z " fill="#C8C7CA" transform="translate(65,145)"/>
<path d="M0 0 C11.88 0 23.76 0 36 0 C36 0.33 36 0.66 36 1 C35.00556885 1.02505615 34.0111377 1.0501123 32.98657227 1.07592773 C29.30951253 1.16984882 25.6326485 1.27010619 21.95581055 1.37231445 C20.362107 1.41572146 18.7683552 1.45739219 17.17456055 1.49731445 C14.88836092 1.55487807 12.60240551 1.61861149 10.31640625 1.68359375 C9.2413961 1.70866249 9.2413961 1.70866249 8.14466858 1.73423767 C4.78472618 1.55018654 4.78472618 1.55018654 2 3 C1.84011509 5.51880517 1.74065775 8.01342266 1.68359375 10.53515625 C1.66281265 11.28840683 1.64203156 12.04165741 1.62062073 12.81773376 C1.55504575 15.2325599 1.49620379 17.64749798 1.4375 20.0625 C1.3943223 21.69597529 1.35070827 23.3294391 1.30664062 24.96289062 C1.19935638 28.97514464 1.09811179 32.98751164 1 37 C0.67 37 0.34 37 0 37 C0 24.79 0 12.58 0 0 Z " fill="#C8C7CA" transform="translate(65,45)"/>
<path d="M0 0 C1.010625 -0.020625 2.02125 -0.04125 3.0625 -0.0625 C4.031875 -0.06765625 5.00125 -0.0728125 6 -0.078125 C6.886875 -0.0874707 7.77375 -0.09681641 8.6875 -0.10644531 C11 0.25 11 0.25 14 3.25 C4.76 3.25 -4.48 3.25 -14 3.25 C-14 2.59 -14 1.93 -14 1.25 C-9.4025367 -0.28248777 -4.81559361 0.02456936 0 0 Z " fill="#C0BFC1" transform="translate(578,64.75)"/>
<path d="M0 0 C3.12482562 -0.08687496 6.24934246 -0.14034568 9.375 -0.1875 C10.70917969 -0.22520508 10.70917969 -0.22520508 12.0703125 -0.26367188 C13.34648438 -0.27817383 13.34648438 -0.27817383 14.6484375 -0.29296875 C15.82672119 -0.31653442 15.82672119 -0.31653442 17.02880859 -0.34057617 C17.67930176 -0.22818604 18.32979492 -0.1157959 19 0 C19.66 0.99 20.32 1.98 21 3 C16.85340627 4.19799449 13.00630953 3.8896192 8.75 3.5625 C8.00492188 3.51029297 7.25984375 3.45808594 6.4921875 3.40429688 C4.66105139 3.2751783 2.83046187 3.13834886 1 3 C0.67 2.01 0.34 1.02 0 0 Z " fill="#C7C6C8" transform="translate(607,33)"/>
<path d="M0 0 C0.66 0 1.32 0 2 0 C2 2.31 2 4.62 2 7 C0.02 7.99 0.02 7.99 -2 9 C-1.34 6.03 -0.68 3.06 0 0 Z M-3 9 C-2.34 9.66 -1.68 10.32 -1 11 C-3.64 13.31 -6.28 15.62 -9 18 C-9.66 17.34 -10.32 16.68 -11 16 C-8.36 13.69 -5.72 11.38 -3 9 Z M-11 17 C-11 17.66 -11 18.32 -11 19 C-12.98 19.33 -14.96 19.66 -17 20 C-17 19.34 -17 18.68 -17 18 C-14.92446352 17.4465236 -13.15634036 17 -11 17 Z " fill="#EFEEF1" transform="translate(1105,104)"/>
<path d="M0 0 C2.77141717 -0.08089542 5.54047819 -0.14044062 8.3125 -0.1875 C9.09818359 -0.21263672 9.88386719 -0.23777344 10.69335938 -0.26367188 C11.45068359 -0.27333984 12.20800781 -0.28300781 12.98828125 -0.29296875 C14.03302612 -0.31653442 14.03302612 -0.31653442 15.09887695 -0.34057617 C17 0 17 0 20 3 C9.605 3.495 9.605 3.495 -1 4 C-0.67 2.68 -0.34 1.36 0 0 Z " fill="#C1C0C2" transform="translate(828,65)"/>
<path d="M0 0 C0.66 0 1.32 0 2 0 C1.67 8.58 1.34 17.16 1 26 C0.34 26 -0.32 26 -1 26 C-1.02907084 22.41668375 -1.04682263 18.83339792 -1.0625 15.25 C-1.07087891 14.23421875 -1.07925781 13.2184375 -1.08789062 12.171875 C-1.09111328 11.1921875 -1.09433594 10.2125 -1.09765625 9.203125 C-1.10289307 8.30239258 -1.10812988 7.40166016 -1.11352539 6.47363281 C-1.00762312 4.16610196 -0.65132813 2.20865595 0 0 Z " fill="#F0EFF2" transform="translate(350,77)"/>
<path d="M0 0 C-0.51949219 0.31453125 -1.03898438 0.6290625 -1.57421875 0.953125 C-4.82415434 2.94754018 -7.89835396 4.91824123 -10.875 7.3125 C-13 9 -13 9 -15 9 C-13.84881881 5.54645644 -12.9436488 4.94859353 -10.0625 2.875 C-9.35222656 2.35679688 -8.64195312 1.83859375 -7.91015625 1.3046875 C-4.74953557 -0.85410045 -3.64303321 -1.09290996 0 0 Z M-16 9 C-15.34 9.66 -14.68 10.32 -14 11 C-15.92576115 13.43929746 -17.80090595 15.80090595 -20 18 C-20 13.31908701 -19.00354129 12.37898396 -16 9 Z " fill="#EFEEF1" transform="translate(690,67)"/>
<path d="M0 0 C4.34174442 0.67963477 8.59703519 1.55848785 12.875 2.5625 C14.02742188 2.83191406 15.17984375 3.10132812 16.3671875 3.37890625 C17.23601562 3.58386719 18.10484375 3.78882812 19 4 C19 4.66 19 5.32 19 6 C11.59762973 5.75690081 6.13104736 5.31960155 0 1 C0 0.67 0 0.34 0 0 Z M19 3 C21.31 3 23.62 3 26 3 C26.33 3.66 26.66 4.32 27 5 C24.69 5 22.38 5 20 5 C19.67 4.34 19.34 3.68 19 3 Z " fill="#F1F0F3" transform="translate(386,122)"/>
<path d="M0 0 C1.16144531 0.00902344 2.32289063 0.01804687 3.51953125 0.02734375 C4.39996094 0.03894531 5.28039062 0.05054687 6.1875 0.0625 C6.5175 1.0525 6.8475 2.0425 7.1875 3.0625 C4.39557795 3.11630578 1.6046859 3.15607669 -1.1875 3.1875 C-1.9815625 3.20425781 -2.775625 3.22101563 -3.59375 3.23828125 C-5.66742015 3.25585473 -7.74133241 3.16585168 -9.8125 3.0625 C-10.4725 2.4025 -11.1325 1.7425 -11.8125 1.0625 C-7.81454108 0.10630267 -4.10446078 -0.0414592 0 0 Z " fill="#FAF9FB" transform="translate(648.8125,122.9375)"/>
<path d="M0 0 C0.99 0.495 0.99 0.495 2 1 C2.33 7.93 2.66 14.86 3 22 C2.01 21.67 1.02 21.34 0 21 C0 14.07 0 7.14 0 0 Z " fill="#F2F1F4" transform="translate(859,94)"/>
<path d="M0 0 C0.66 0 1.32 0 2 0 C2 5.28 2 10.56 2 16 C1.01 15.67 0.02 15.34 -1 15 C-1.02685412 12.68756208 -1.04632841 10.3750373 -1.0625 8.0625 C-1.07410156 6.77472656 -1.08570313 5.48695313 -1.09765625 4.16015625 C-1 1 -1 1 0 0 Z " fill="#FAF9FB" transform="translate(828,128)"/>
<path d="M0 0 C0 0.66 0 1.32 0 2 C-1.41774369 2.91140665 -2.83715182 3.82034745 -4.265625 4.71484375 C-7.34694742 6.9980759 -9.6311943 10.0095928 -12 13 C-12.66 12.67 -13.32 12.34 -14 12 C-12.60609461 8.84280428 -10.96365028 6.7187347 -8.5 4.3125 C-7.8915625 3.71050781 -7.283125 3.10851562 -6.65625 2.48828125 C-4.24238386 0.31921757 -3.31382274 0 0 0 Z " fill="#EDECEF" transform="translate(463,68)"/>
<path d="M0 0 C0.66 0.33 1.32 0.66 2 1 C2.054348 3.0622048 2.09294961 5.12482816 2.125 7.1875 C2.14820313 8.33605469 2.17140625 9.48460938 2.1953125 10.66796875 C2.00484152 13.91740372 1.39360127 16.08660521 0 19 C-0.66 18.34 -1.32 17.68 -2 17 C-1.505 15.515 -1.505 15.515 -1 14 C-0.77439324 11.60745424 -0.59151405 9.21071877 -0.4375 6.8125 C-0.35371094 5.54019531 -0.26992188 4.26789063 -0.18359375 2.95703125 C-0.12300781 1.98121094 -0.06242187 1.00539063 0 0 Z " fill="#F1F0F3" transform="translate(502,97)"/>
<path d="M0 0 C0.99 0.33 1.98 0.66 3 1 C2.34 2.65 1.68 4.3 1 6 C0.34 6 -0.32 6 -1 6 C-1.33 6.66 -1.66 7.32 -2 8 C-2.99 8 -3.98 8 -5 8 C-4.34 6.68 -3.68 5.36 -3 4 C-2.34 4 -1.68 4 -1 4 C-0.67 2.68 -0.34 1.36 0 0 Z M-6 9 C-5.34 9.66 -4.68 10.32 -4 11 C-4.99 11.66 -5.98 12.32 -7 13 C-6.67 11.68 -6.34 10.36 -6 9 Z " fill="#EFEEF1" transform="translate(163,0)"/>
<path d="M0 0 C0.66 0 1.32 0 2 0 C2 3.3 2 6.6 2 10 C1.01 9.67 0.02 9.34 -1 9 C-1.09765625 2.84765625 -1.09765625 2.84765625 -1 1 C-0.67 0.67 -0.34 0.34 0 0 Z " fill="#FAF9FB" transform="translate(540,134)"/>
<path d="M0 0 C0.66 0 1.32 0 2 0 C2 0.66 2 1.32 2 2 C1.34 2 0.68 2 0 2 C0 1.34 0 0.68 0 0 Z " fill="#B7B6B8" transform="translate(736,128)"/>
<path d="M0 0 C0.99 0.495 0.99 0.495 2 1 C1.01 1.495 1.01 1.495 0 2 C0 1.34 0 0.68 0 0 Z " fill="#A6A6A7" transform="translate(1108,136)"/>
<path d="M0 0 C0.99 0.495 0.99 0.495 2 1 C1.01 1.495 1.01 1.495 0 2 C0 1.34 0 0.68 0 0 Z " fill="#A6A6A7" transform="translate(220,104)"/>
<path d="M0 0 C0.99 0.495 0.99 0.495 2 1 C1.01 1.495 1.01 1.495 0 2 C0 1.34 0 0.68 0 0 Z " fill="#A6A6A7" transform="translate(720,100)"/>
<path d="M0 0 C2 1 2 1 2 1 Z " fill="#000000" transform="translate(165,185)"/>
<path d="M0 0 C2 1 2 1 2 1 Z " fill="#000000" transform="translate(65,185)"/>
<path d="M0 0 C2 1 2 1 2 1 Z " fill="#000000" transform="translate(1145,145)"/>
<path d="M0 0 C2 1 2 1 2 1 Z " fill="#000000" transform="translate(957,145)"/>
<path d="M0 0 C2 1 2 1 2 1 Z " fill="#000000" transform="translate(540,145)"/>
<path d="M0 0 C2 1 2 1 2 1 Z " fill="#000000" transform="translate(522,145)"/>
<path d="M0 0 C2 1 2 1 2 1 Z " fill="#000000" transform="translate(65,85)"/>
<path d="M0 0 C2 1 2 1 2 1 Z " fill="#000000" transform="translate(225,25)"/>
<path d="" fill="#000000" transform="translate(0,0)"/>
<path d="" fill="#000000" transform="translate(0,0)"/>
<path d="" fill="#000000" transform="translate(0,0)"/>
<path d="" fill="#000000" transform="translate(0,0)"/>
<path d="" fill="#000000" transform="translate(0,0)"/>
<path d="" fill="#000000" transform="translate(0,0)"/>
<path d="" fill="#000000" transform="translate(0,0)"/>
<path d="" fill="#000000" transform="translate(0,0)"/>
<path d="" fill="#000000" transform="translate(0,0)"/>
<path d="" fill="#000000" transform="translate(0,0)"/>
<path d="" fill="#000000" transform="translate(0,0)"/>
<path d="" fill="#000000" transform="translate(0,0)"/>
<path d="" fill="#000000" transform="translate(0,0)"/>
<path d="" fill="#000000" transform="translate(0,0)"/>
<path d="" fill="#000000" transform="translate(0,0)"/>
<path d="" fill="#000000" transform="translate(0,0)"/>
<path d="" fill="#000000" transform="translate(0,0)"/>
<path d="" fill="#000000" transform="translate(0,0)"/>
<path d="" fill="#000000" transform="translate(0,0)"/>
<path d="" fill="#000000" transform="translate(0,0)"/>
<path d="" fill="#000000" transform="translate(0,0)"/>
<path d="" fill="#E8E7EB" transform="translate(0,0)"/>
<path d="" fill="#000000" transform="translate(0,0)"/>
<path d="" fill="#000000" transform="translate(0,0)"/>
<path d="" fill="#000000" transform="translate(0,0)"/>
<path d="" fill="#000000" transform="translate(0,0)"/>
<path d="" fill="#000000" transform="translate(0,0)"/>
<path d="" fill="#000000" transform="translate(0,0)"/>
<path d="" fill="#E8E7EB" transform="translate(0,0)"/>
<path d="" fill="#000000" transform="translate(0,0)"/>
<path d="" fill="#000000" transform="translate(0,0)"/>
<path d="" fill="#000000" transform="translate(0,0)"/>
<path d="" fill="#000000" transform="translate(0,0)"/>
<path d="" fill="#000000" transform="translate(0,0)"/>
<path d="" fill="#000000" transform="translate(0,0)"/>
<path d="" fill="#000000" transform="translate(0,0)"/>
<path d="" fill="#000000" transform="translate(0,0)"/>
</svg>
