<?xml version="1.0" encoding="UTF-8"?>
<!-- Generator: visioncortex VTracer 0.6.1 -->
<svg version="1.1" xmlns="http://www.w3.org/2000/svg" width="1280" height="208">
<path d="M0 0 C0.83265381 0.00523682 1.66530762 0.01047363 2.52319336 0.01586914 C3.42231445 0.0190918 4.32143555 0.02231445 5.24780273 0.02563477 C6.66609375 0.03820313 6.66609375 0.03820313 8.11303711 0.05102539 C9.06243164 0.05553711 10.01182617 0.06004883 10.98999023 0.06469727 C13.34356776 0.07652429 15.69702188 0.09300514 18.05053711 0.11352539 C18.05933647 1.45323395 18.05933647 1.45323395 18.0683136 2.82000732 C18.1262147 11.23657293 18.19827652 19.65287242 18.28625202 28.06917953 C18.33098172 32.39611703 18.37023199 36.7229598 18.39697266 41.05004883 C18.42297989 45.22586625 18.46336365 49.40131967 18.51372337 53.57691193 C18.53040962 55.17006147 18.54191296 56.763274 18.54815102 58.35649872 C18.5577733 60.58807035 18.58580817 62.81870709 18.61816406 65.05004883 C18.62926712 66.32023865 18.64037018 67.59042847 18.65180969 68.89910889 C19.07767718 72.33232018 19.74779742 73.61467469 22.05053711 76.11352539 C22.48366211 76.79415039 22.91678711 77.47477539 23.36303711 78.17602539 C26.92058609 82.26061866 31.1615486 83.31196814 36.36303711 83.98852539 C42.80767717 84.39076887 47.86132788 83.43949001 53.12866211 79.59790039 C56.51017864 76.54628791 57.90216623 74.77059644 58.92553711 70.23852539 C58.96678711 69.20727539 59.00803711 68.17602539 59.05053711 67.11352539 C59.38053711 66.78352539 59.71053711 66.45352539 60.05053711 66.11352539 C60.169032 64.09452908 60.21794885 62.07142271 60.23999023 60.04907227 C60.26506653 58.10200378 60.26506653 58.10200378 60.29064941 56.11560059 C60.29733139 55.41765884 60.30401337 54.7197171 60.31089783 54.00062561 C60.33186422 51.8242707 60.35889096 49.64806775 60.38757324 47.47180176 C60.44736092 42.85243414 60.499482 38.2329967 60.55053711 33.61352539 C60.60967514 28.26271114 60.67189668 22.91197196 60.74241638 17.56129456 C60.76908128 15.4113707 60.78984117 13.26143967 60.8104248 11.1114502 C60.8355011 9.16438171 60.8355011 9.16438171 60.86108398 7.17797852 C60.8798761 5.45375671 60.8798761 5.45375671 60.89904785 3.69470215 C61.05053711 1.11352539 61.05053711 1.11352539 62.05053711 0.11352539 C63.53925571 0.02683107 65.03198211 0.00649045 66.52319336 0.01586914 C67.42231445 0.0190918 68.32143555 0.02231445 69.24780273 0.02563477 C70.66609375 0.03820313 70.66609375 0.03820313 72.11303711 0.05102539 C73.53712891 0.05779297 73.53712891 0.05779297 74.98999023 0.06469727 C77.34356776 0.07652429 79.69702188 0.09300514 82.05053711 0.11352539 C82.09702675 9.21532207 82.13249041 18.31707742 82.15416145 27.41896725 C82.16456627 31.64605361 82.17866465 35.87305829 82.20141602 40.10009766 C82.22326281 44.18497576 82.23513053 48.26977566 82.2402916 52.35470772 C82.24396621 53.90749911 82.25114144 55.46028657 82.26199722 57.01304436 C82.33184411 67.42455239 82.33633574 76.81051979 77.05053711 86.11352539 C76.53491211 87.04165039 76.01928711 87.96977539 75.48803711 88.92602539 C74.05053711 91.11352539 74.05053711 91.11352539 72.05053711 92.11352539 C71.36991211 93.00040039 70.68928711 93.88727539 69.98803711 94.80102539 C65.03579049 100.86351019 58.59758332 104.41929053 51.05053711 106.11352539 C50.06053711 106.60852539 50.06053711 106.60852539 49.05053711 107.11352539 C47.6989573 107.20817884 46.34292563 107.24424701 44.98803711 107.24633789 C44.19139648 107.24762695 43.39475586 107.24891602 42.57397461 107.25024414 C41.74124023 107.24637695 40.90850586 107.24250977 40.05053711 107.23852539 C39.21780273 107.24239258 38.38506836 107.24625977 37.52709961 107.25024414 C36.73045898 107.24895508 35.93381836 107.24766602 35.11303711 107.24633789 C34.38213867 107.24520996 33.65124023 107.24408203 32.89819336 107.24291992 C31.05053711 107.11352539 31.05053711 107.11352539 29.05053711 106.11352539 C27.34776764 105.5747803 25.63857996 105.05615341 23.92553711 104.55102539 C23.01545898 104.28161133 22.10538086 104.01219727 21.16772461 103.73461914 C20.46905273 103.5296582 19.77038086 103.32469727 19.05053711 103.11352539 C19.05053711 102.45352539 19.05053711 101.79352539 19.05053711 101.11352539 C17.73053711 100.78352539 16.41053711 100.45352539 15.05053711 100.11352539 C15.05053711 99.45352539 15.05053711 98.79352539 15.05053711 98.11352539 C13.92325195 97.75000977 13.92325195 97.75000977 12.77319336 97.37915039 C9.67591515 95.93938261 8.49087331 94.59593302 6.48803711 91.86352539 C5.89506836 91.05657227 5.30209961 90.24961914 4.69116211 89.41821289 C4.14975586 88.65766602 3.60834961 87.89711914 3.05053711 87.11352539 C2.28741211 86.08227539 1.52428711 85.05102539 0.73803711 83.98852539 C-2.5351152 78.41204369 -3.19949883 73.01678724 -3.19238281 66.63354492 C-3.19428116 65.92211838 -3.1961795 65.21069183 -3.19813538 64.47770691 C-3.20180954 62.15046812 -3.19119247 59.82354842 -3.17993164 57.49633789 C-3.17873845 55.87206051 -3.17828697 54.24778244 -3.17854309 52.62350464 C-3.17698437 49.23276401 -3.1687374 45.84212988 -3.15527344 42.45141602 C-3.13820291 38.0965905 -3.13446174 33.7418809 -3.13521862 29.38702583 C-3.13494746 26.03971238 -3.12947631 22.69242446 -3.12221718 19.34511948 C-3.11902818 17.73828194 -3.11706256 16.13144151 -3.11632347 14.52460098 C-3.11416695 12.28872935 -3.10544022 10.05298349 -3.09472656 7.81713867 C-3.09091476 6.54363556 -3.08710297 5.27013245 -3.08317566 3.95803833 C-2.90507154 0.16917449 -2.90507154 0.16917449 0 0 Z M80.05053711 64.11352539 C80.05053711 65.76352539 80.05053711 67.41352539 80.05053711 69.11352539 C80.38053711 69.11352539 80.71053711 69.11352539 81.05053711 69.11352539 C81.05053711 67.46352539 81.05053711 65.81352539 81.05053711 64.11352539 C80.72053711 64.11352539 80.39053711 64.11352539 80.05053711 64.11352539 Z M60.05053711 67.11352539 C61.05053711 69.11352539 61.05053711 69.11352539 61.05053711 69.11352539 Z M79.05053711 72.11352539 C80.05053711 75.11352539 80.05053711 75.11352539 80.05053711 75.11352539 Z M78.05053711 77.11352539 C79.05053711 80.11352539 79.05053711 80.11352539 79.05053711 80.11352539 Z " fill="#5C6DF9" transform="translate(1044.949462890625,37.886474609375)"/>
<path d="M0 0 C2.625 1.7265625 2.625 1.7265625 4.625 3.7265625 C6.99514192 4.39497104 6.99514192 4.39497104 9.625 3.7265625 C10.8625 2.2415625 10.8625 2.2415625 12.125 0.7265625 C14.625 -2.2734375 14.625 -2.2734375 17.375 -2.7109375 C19.625 -2.2734375 19.625 -2.2734375 20.625 -1.2734375 C20.71467915 1.15010528 20.73998362 3.5449035 20.72265625 5.96850586 C20.72046585 7.10507378 20.72046585 7.10507378 20.7182312 8.26460266 C20.71441616 9.91522302 20.70829018 11.56583924 20.70016479 13.21644402 C20.6874549 15.8256652 20.68089935 18.43483584 20.67602539 21.04408264 C20.66261878 27.52597652 20.63842609 34.00782255 20.61462402 40.48968506 C20.59493434 45.96163724 20.57927534 51.43357168 20.56906128 56.90555 C20.56255659 59.48149402 20.5500472 62.05736562 20.53735352 64.63328552 C20.53372199 66.20726457 20.53037013 67.78124429 20.52734375 69.35522461 C20.51959427 70.43611862 20.51959427 70.43611862 20.51168823 71.53884888 C20.45618158 75.25697968 20.45618158 75.25697968 21.625 78.7265625 C19.975 78.7265625 18.325 78.7265625 16.625 78.7265625 C16.625 78.0665625 16.625 77.4065625 16.625 76.7265625 C15.965 76.7265625 15.305 76.7265625 14.625 76.7265625 C14.068125 75.5921875 13.51125 74.4578125 12.9375 73.2890625 C11.2027124 70.17187419 11.2027124 70.17187419 7.875 68.7890625 C7.1325 68.7684375 6.39 68.7478125 5.625 68.7265625 C5.625 69.3865625 5.625 70.0465625 5.625 70.7265625 C3.975 71.0565625 2.325 71.3865625 0.625 71.7265625 C0.625 72.3865625 0.625 73.0465625 0.625 73.7265625 C-0.365 73.7265625 -1.355 73.7265625 -2.375 73.7265625 C-2.375 74.3865625 -2.375 75.0465625 -2.375 75.7265625 C-8.29054578 78.26276001 -13.14212849 79.27386289 -19.5625 79.2265625 C-20.38532471 79.22591797 -21.20814941 79.22527344 -22.0559082 79.22460938 C-29.59278392 79.04255569 -35.61459513 77.1249707 -42.375 73.7265625 C-42.375 73.0665625 -42.375 72.4065625 -42.375 71.7265625 C-43.096875 71.4996875 -43.81875 71.2728125 -44.5625 71.0390625 C-50.47882798 68.27810944 -53.52215345 63.3898688 -56.375 57.7265625 C-56.71748779 57.08436768 -57.05997559 56.44217285 -57.4128418 55.78051758 C-60.41115738 49.71396103 -61.1476191 44.39154885 -61.125 37.6640625 C-61.12177734 36.65980225 -61.11855469 35.65554199 -61.11523438 34.62084961 C-60.73466231 22.93598129 -56.4134417 13.76523108 -48.5625 5.1015625 C-34.4663547 -7.48727221 -16.16767474 -9.09431704 0 0 Z M-25.375 14.7265625 C-25.375 15.0565625 -25.375 15.3865625 -25.375 15.7265625 C-22.075 15.7265625 -18.775 15.7265625 -15.375 15.7265625 C-15.375 15.3965625 -15.375 15.0665625 -15.375 14.7265625 C-18.675 14.7265625 -21.975 14.7265625 -25.375 14.7265625 Z M-13.375 15.7265625 C-21.25087796 15.96668073 -27.72421794 16.25007458 -34.375 20.7265625 C-34.74399848 22.05046922 -35.08089568 23.38403074 -35.375 24.7265625 C-36.365 25.2215625 -36.365 25.2215625 -37.375 25.7265625 C-39.98425337 29.64044255 -39.41276945 32.67835373 -39.0625 37.1640625 C-39.01416016 37.92783203 -38.96582031 38.69160156 -38.91601562 39.47851562 C-38.67256331 43.01936012 -38.30892141 46.29228095 -37.375 49.7265625 C-36.715 49.7265625 -36.055 49.7265625 -35.375 49.7265625 C-35.16875 50.3246875 -34.9625 50.9228125 -34.75 51.5390625 C-32.8145655 54.61816285 -30.69840822 55.30557254 -27.375 56.7265625 C-21.90558522 57.90039282 -16.08546522 58.90303744 -10.828125 56.62109375 C-6.23928133 53.26571746 -2.19272276 49.17973078 -0.375 43.7265625 C0.32926592 35.89914987 0.46332894 29.16376695 -3.9375 22.4375 C-5.82982069 20.18522701 -7.64945271 18.83151411 -10.375 17.7265625 C-11.035 17.7265625 -11.695 17.7265625 -12.375 17.7265625 C-12.705 17.0665625 -13.035 16.4065625 -13.375 15.7265625 Z M-40.375 29.7265625 C-40.375 34.3465625 -40.375 38.9665625 -40.375 43.7265625 C-40.045 43.7265625 -39.715 43.7265625 -39.375 43.7265625 C-39.375 39.1065625 -39.375 34.4865625 -39.375 29.7265625 C-39.705 29.7265625 -40.035 29.7265625 -40.375 29.7265625 Z M-16.375 76.7265625 C-12.375 77.7265625 -12.375 77.7265625 -12.375 77.7265625 Z " fill="#5668F9" transform="translate(502.375,67.2734375)"/>
<path d="M0 0 C0.78133301 0.0002417 1.56266602 0.0004834 2.36767578 0.00073242 C10.57045203 0.24109755 16.98477695 3.21345302 23.4140625 8.26171875 C25.21497442 9.8033807 25.21497442 9.8033807 27.75 9.5625 C30.47690662 8.71506039 30.47690662 8.71506039 32.25 6 C34.25 3.5625 34.25 3.5625 36.9375 3.1875 C39.25 3.5625 39.25 3.5625 40.25 4.5625 C40.34498646 6.99646019 40.37558417 9.40192952 40.36352539 11.83618164 C40.36367142 12.59710617 40.36381744 13.3580307 40.3639679 14.14201355 C40.36326862 16.66892298 40.35547555 19.19575962 40.34765625 21.72265625 C40.34579212 23.4700059 40.3443682 25.21735607 40.34336853 26.96470642 C40.33954293 31.57281934 40.32971229 36.18090095 40.31866455 40.78900146 C40.30845134 45.48758521 40.3038711 50.18617399 40.29882812 54.88476562 C40.28809005 64.11069087 40.27101313 73.33659284 40.25 82.5625 C37.86254883 82.671875 37.86254883 82.671875 35.25 82.5625 C33.44921875 80.8125 33.44921875 80.8125 31.9375 78.5625 C31.42574219 77.82 30.91398438 77.0775 30.38671875 76.3125 C30.01160156 75.735 29.63648438 75.1575 29.25 74.5625 C28.693125 74.87703125 28.13625 75.1915625 27.5625 75.515625 C14.10733402 83.06142754 2.72992134 87.23240982 -12.9453125 83.87890625 C-22.84376671 80.13983499 -32.01169647 72.38194132 -37.10546875 63.08984375 C-40.17420229 56.27659059 -40.95948112 50.73758405 -41 43.3125 C-41.020625 42.38308594 -41.04125 41.45367187 -41.0625 40.49609375 C-41.09553347 34.65742799 -40.44914095 30.74382967 -37.75 25.5625 C-37.09451172 24.15484375 -37.09451172 24.15484375 -36.42578125 22.71875 C-30.74260667 11.64551587 -22.58326058 5.47626414 -10.953125 1.20849609 C-7.30536641 0.1389073 -3.78387171 -0.01106395 0 0 Z M-5.75 20.5625 C-5.75 20.8925 -5.75 21.2225 -5.75 21.5625 C-2.12 21.5625 1.51 21.5625 5.25 21.5625 C5.25 21.2325 5.25 20.9025 5.25 20.5625 C1.62 20.5625 -2.01 20.5625 -5.75 20.5625 Z M4.52734375 21.4453125 C-2.68369379 21.96821815 -8.39847119 23.07424619 -14.75 26.5625 C-15.74 27.0575 -15.74 27.0575 -16.75 27.5625 C-17.14171753 29.21641846 -17.47057545 30.88595271 -17.75 32.5625 C-18.08 33.5525 -18.41 34.5425 -18.75 35.5625 C-18.8460133 38.01931101 -18.87983042 40.47881833 -18.875 42.9375 C-18.87757813 44.24460937 -18.88015625 45.55171875 -18.8828125 46.8984375 C-18.74170747 53.3212067 -18.74170747 53.3212067 -15 58.25 C-8.41152409 62.93795401 -1.73398522 63.68255993 6.25 63.5625 C8.75100202 62.86329513 10.11971628 62.08413123 12.25 60.5625 C12.25 59.9025 12.25 59.2425 12.25 58.5625 C12.91 58.5625 13.57 58.5625 14.25 58.5625 C19.61887928 51.31451297 20.52819379 44.42805213 19.25 35.5625 C17.6251798 30.82067777 15.64036525 27.56485635 11.5625 24.625 C10.4178125 24.0990625 10.4178125 24.0990625 9.25 23.5625 C7.39980327 21.26160604 7.39980327 21.26160604 4.52734375 21.4453125 Z M-20.75 35.5625 C-20.75 40.1825 -20.75 44.8025 -20.75 49.5625 C-20.42 49.5625 -20.09 49.5625 -19.75 49.5625 C-19.75 44.9425 -19.75 40.3225 -19.75 35.5625 C-20.08 35.5625 -20.41 35.5625 -20.75 35.5625 Z M23.25 73.5625 C24.25 75.5625 24.25 75.5625 24.25 75.5625 Z M4.25 82.5625 C8.25 83.5625 8.25 83.5625 8.25 83.5625 Z " fill="#5668F9" transform="translate(899.75,61.4375)"/>
<path d="M0 0 C3.38227758 2.73270109 3.38227758 2.73270109 4.76953125 4.4296875 C4.45703125 7.6171875 4.45703125 7.6171875 3.76953125 10.4296875 C3.10953125 10.4296875 2.44953125 10.4296875 1.76953125 10.4296875 C1.54265625 11.3578125 1.31578125 12.2859375 1.08203125 13.2421875 C-0.43931245 16.93687933 -1.69399371 17.75451511 -5.23046875 19.4296875 C-4.73546875 20.9146875 -4.73546875 20.9146875 -4.23046875 22.4296875 C-8.24080482 21.81271272 -10.91469224 19.66276148 -14.23046875 17.4296875 C-15.88416232 16.73146133 -17.54773889 16.05470145 -19.23046875 15.4296875 C-19.56046875 15.0996875 -19.89046875 14.7696875 -20.23046875 14.4296875 C-20.99359375 14.4296875 -21.75671875 14.4296875 -22.54296875 14.4296875 C-25.23046875 14.4296875 -25.23046875 14.4296875 -27.0546875 13.9140625 C-29.72968896 13.3185505 -32.00170863 13.45478969 -34.73046875 13.6796875 C-36.138125 13.78023437 -36.138125 13.78023437 -37.57421875 13.8828125 C-40.53701066 14.49279907 -41.91931767 15.53829677 -44.23046875 17.4296875 C-46.98046875 18.1171875 -46.98046875 18.1171875 -49.23046875 18.4296875 C-49.23046875 19.0896875 -49.23046875 19.7496875 -49.23046875 20.4296875 C-49.97296875 20.8215625 -50.71546875 21.2134375 -51.48046875 21.6171875 C-55.16329027 24.04450169 -56.24239652 26.52717534 -58.23046875 30.4296875 C-58.89046875 30.4296875 -59.55046875 30.4296875 -60.23046875 30.4296875 C-61.8872173 36.22830743 -62.4234681 41.65790008 -62.41796875 47.6796875 C-62.41861328 48.36482422 -62.41925781 49.04996094 -62.41992188 49.75585938 C-62.35510796 55.79533813 -61.99516798 59.68289281 -58.23046875 64.4296875 C-58.23046875 65.0896875 -58.23046875 65.7496875 -58.23046875 66.4296875 C-57.57046875 66.4296875 -56.91046875 66.4296875 -56.23046875 66.4296875 C-55.83472656 67.17605469 -55.43898438 67.92242187 -55.03125 68.69140625 C-52.75641878 72.15053137 -50.05043567 73.51914298 -46.41796875 75.2421875 C-45.81404297 75.55349609 -45.21011719 75.86480469 -44.58789062 76.18554688 C-40.61817408 78.12981063 -37.6142061 78.69536855 -33.23046875 78.4296875 C-31.99296875 78.708125 -31.99296875 78.708125 -30.73046875 78.9921875 C-27.68991658 79.52428413 -25.24944227 78.9663939 -22.23046875 78.4296875 C-21.57046875 78.7596875 -20.91046875 79.0896875 -20.23046875 79.4296875 C-20.23046875 78.7696875 -20.23046875 78.1096875 -20.23046875 77.4296875 C-16.76546875 76.9346875 -16.76546875 76.9346875 -13.23046875 76.4296875 C-13.23046875 75.7696875 -13.23046875 75.1096875 -13.23046875 74.4296875 C-10.92046875 73.1096875 -8.61046875 71.7896875 -6.23046875 70.4296875 C-2.94682567 73.45180148 -0.73066291 76.58320176 1.51953125 80.4296875 C2.133125 81.4609375 2.74671875 82.4921875 3.37890625 83.5546875 C4.76953125 86.4296875 4.76953125 86.4296875 4.76953125 90.4296875 C4.10953125 90.4296875 3.44953125 90.4296875 2.76953125 90.4296875 C2.76953125 91.0896875 2.76953125 91.7496875 2.76953125 92.4296875 C-0.13595757 94.47138235 -1.63188921 95.4296875 -5.23046875 95.4296875 C-5.23046875 96.0896875 -5.23046875 96.7496875 -5.23046875 97.4296875 C-6.15730469 97.70683594 -7.08414063 97.98398438 -8.0390625 98.26953125 C-9.83537109 98.81287109 -9.83537109 98.81287109 -11.66796875 99.3671875 C-13.46041016 99.90666016 -13.46041016 99.90666016 -15.2890625 100.45703125 C-18.0891442 101.13857892 -18.0891442 101.13857892 -19.23046875 102.4296875 C-22.3880876 102.71131297 -25.56180977 102.66163246 -28.73046875 102.6796875 C-29.60445313 102.7003125 -30.4784375 102.7209375 -31.37890625 102.7421875 C-42.39255595 102.80755041 -50.58786205 98.25099085 -60.23046875 93.4296875 C-60.23046875 92.7696875 -60.23046875 92.1096875 -60.23046875 91.4296875 C-60.8028125 91.34203125 -61.37515625 91.254375 -61.96484375 91.1640625 C-70.98743645 88.23949797 -77.16538922 76.28246466 -81.23046875 68.4296875 C-85.90755537 57.08492031 -87.7989171 41.3002199 -83.2734375 29.7421875 C-82.92925781 28.9790625 -82.58507812 28.2159375 -82.23046875 27.4296875 C-81.79347656 26.4603125 -81.35648437 25.4909375 -80.90625 24.4921875 C-73.04295584 7.98133363 -62.13129799 -0.84644164 -45.375 -7.74609375 C-29.52358228 -12.80607732 -13.445076 -9.51181285 0 0 Z M1.76953125 7.4296875 C2.76953125 9.4296875 2.76953125 9.4296875 2.76953125 9.4296875 Z M-38.23046875 12.4296875 C-34.23046875 13.4296875 -34.23046875 13.4296875 -34.23046875 13.4296875 Z M-65.23046875 40.4296875 C-64.23046875 43.4296875 -64.23046875 43.4296875 -64.23046875 43.4296875 Z M-39.23046875 100.4296875 C-39.23046875 100.7596875 -39.23046875 101.0896875 -39.23046875 101.4296875 C-37.58046875 101.4296875 -35.93046875 101.4296875 -34.23046875 101.4296875 C-34.23046875 101.0996875 -34.23046875 100.7696875 -34.23046875 100.4296875 C-35.88046875 100.4296875 -37.53046875 100.4296875 -39.23046875 100.4296875 Z M-25.23046875 100.4296875 C-25.23046875 100.7596875 -25.23046875 101.0896875 -25.23046875 101.4296875 C-23.58046875 101.4296875 -21.93046875 101.4296875 -20.23046875 101.4296875 C-20.23046875 101.0996875 -20.23046875 100.7696875 -20.23046875 100.4296875 C-21.88046875 100.4296875 -23.53046875 100.4296875 -25.23046875 100.4296875 Z " fill="#596AF8" transform="translate(433.23046875,45.5703125)"/>
<path d="M0 0 C1.41100983 0.0001133 1.41100983 0.0001133 2.8505249 0.00022888 C3.85794739 0.00539017 4.86536987 0.01055145 5.90332031 0.01586914 C6.94087463 0.01728409 7.97842896 0.01869904 9.04742432 0.02015686 C12.35879407 0.02575092 15.67009602 0.03830236 18.98144531 0.05102539 C21.22753809 0.05604116 23.47363192 0.06060393 25.71972656 0.06469727 C31.2236799 0.07486717 36.72748678 0.09444387 42.23144531 0.11352539 C42.72644531 10.50852539 42.72644531 10.50852539 43.23144531 21.11352539 C29.04144531 21.11352539 14.85144531 21.11352539 0.23144531 21.11352539 C-0.09855469 23.75352539 -0.42855469 26.39352539 -0.76855469 29.11352539 C0.13910645 29.12810791 1.04676758 29.14269043 1.98193359 29.15771484 C5.37053842 29.21900688 8.7583622 29.29320115 12.14648438 29.37597656 C13.60894239 29.40909675 15.07152426 29.43716844 16.53417969 29.45996094 C18.64473934 29.49374714 20.75417717 29.54606919 22.86425781 29.60180664 C24.13156738 29.62799072 25.39887695 29.6541748 26.70458984 29.68115234 C34.85327367 30.68013608 40.95906188 36.12639984 46.23144531 42.11352539 C49.89277607 48.72307889 49.71383833 55.85760169 48.23144531 63.11352539 C47.60549668 64.79590779 46.94923223 66.4682278 46.23144531 68.11352539 C45.57144531 67.78352539 44.91144531 67.45352539 44.23144531 67.11352539 C41.66894556 69.42584961 41.66894556 69.42584961 39.23144531 72.11352539 C39.23144531 73.10352539 39.23144531 74.09352539 39.23144531 75.11352539 C35.35849232 79.22853794 31.63044112 79.76705016 26.23144531 80.11352539 C22.47945807 80.18697361 18.73663957 80.11674459 14.98535156 80.02758789 C13.93363266 80.00634857 12.88191376 79.98510925 11.79832458 79.96322632 C9.59050508 79.91720251 7.38274397 79.86829616 5.17504883 79.81665039 C1.7805573 79.73821604 -1.61402849 79.67134999 -5.00878906 79.60571289 C-7.15659038 79.55952362 -9.30437758 79.5126724 -11.45214844 79.46508789 C-12.47183212 79.44523834 -13.49151581 79.42538879 -14.542099 79.40493774 C-15.94474754 79.37017838 -15.94474754 79.37017838 -17.37573242 79.3347168 C-18.20209702 79.31615631 -19.02846161 79.29759583 -19.87986755 79.2784729 C-21.76855469 79.11352539 -21.76855469 79.11352539 -22.76855469 78.11352539 C-22.89523233 75.12334378 -22.95376307 72.16658431 -22.95605469 69.17602539 C-22.96830078 68.3387793 -22.98054687 67.5015332 -22.99316406 66.63891602 C-22.99509766 65.83776367 -22.99703125 65.03661133 -22.99902344 64.21118164 C-23.00313232 63.47391846 -23.00724121 62.73665527 -23.01147461 61.97705078 C-22.76855469 60.11352539 -22.76855469 60.11352539 -20.76855469 58.11352539 C-18.70578003 57.83505249 -18.70578003 57.83505249 -16.13525391 57.79467773 C-15.17440887 57.77480804 -14.21356384 57.75493835 -13.22360229 57.73446655 C-12.18398346 57.72291534 -11.14436462 57.71136414 -10.07324219 57.69946289 C-8.4793718 57.67041367 -8.4793718 57.67041367 -6.853302 57.64077759 C-3.45013526 57.58086455 -0.04693491 57.53454941 3.35644531 57.48852539 C5.65984571 57.45035642 7.96323167 57.41130534 10.26660156 57.37133789 C15.92142159 57.27515352 21.57632814 57.19014058 27.23144531 57.11352539 C26.73644531 55.13352539 26.73644531 55.13352539 26.23144531 53.11352539 C25.08144043 53.07594116 25.08144043 53.07594116 23.90820312 53.03759766 C20.43245248 52.92151116 16.95696439 52.79884173 13.48144531 52.67602539 C11.67160156 52.61705078 11.67160156 52.61705078 9.82519531 52.55688477 C8.66503906 52.51499023 7.50488281 52.4730957 6.30957031 52.42993164 C5.24125977 52.39327393 4.17294922 52.35661621 3.07226562 52.31884766 C-6.27767887 51.64307391 -12.46548073 46.86137822 -18.88574219 40.42993164 C-23.38981841 34.88860965 -23.4274309 28.88837064 -23.20605469 21.98461914 C-22.43033468 15.12088225 -19.68153787 9.93164131 -14.72949219 5.14086914 C-9.91083423 1.32384233 -6.15029533 -0.01653305 0 0 Z M-2.76855469 23.11352539 C-1.76855469 27.11352539 -1.76855469 27.11352539 -1.76855469 27.11352539 Z M46.23144531 47.11352539 C47.23144531 49.11352539 47.23144531 49.11352539 47.23144531 49.11352539 Z M47.23144531 53.11352539 C48.23144531 57.11352539 48.23144531 57.11352539 48.23144531 57.11352539 Z M46.23144531 61.11352539 C47.23144531 63.11352539 47.23144531 63.11352539 47.23144531 63.11352539 Z M35.23144531 74.11352539 C36.23144531 76.11352539 36.23144531 76.11352539 36.23144531 76.11352539 Z " fill="#5668F9" transform="translate(768.7685546875,64.886474609375)"/>
<path d="M0 0 C5.44503598 3.80200034 9.96622743 7.70452231 14 13 C12.50918351 17.60797824 10.12406101 20.39531422 7 24 C6.67 24.66 6.34 25.32 6 26 C5.34 25.67 4.68 25.34 4 25 C4 25.99 4 26.98 4 28 C3.360625 28.2475 2.72125 28.495 2.0625 28.75 C-0.18741541 29.81562433 -0.18741541 29.81562433 -0.75 32.125 C-0.8325 32.74375 -0.915 33.3625 -1 34 C-2.98 34.495 -2.98 34.495 -5 35 C-5 35.99 -5 36.98 -5 38 C-5.99 38 -6.98 38 -8 38 C-8.0825 38.721875 -8.165 39.44375 -8.25 40.1875 C-9.15114559 43.56679596 -10.73166763 45.37724069 -13 48 C-13.495 48.99 -13.495 48.99 -14 50 C-14.66 50 -15.32 50 -16 50 C-16.66 51.32 -17.32 52.64 -18 54 C-18.66 54 -19.32 54 -20 54 C-19.505 55.98 -19.505 55.98 -19 58 C-13.80531937 58.64933508 -10.94961159 57.18427566 -6.76953125 54.37890625 C-4.75723888 52.81082853 -3.30212893 51.19734257 -2 49 C1.16854747 49.57691478 2.78226459 50.41646887 5.015625 52.72265625 C5.80839844 53.52993164 5.80839844 53.52993164 6.6171875 54.35351562 C7.15601563 54.91748047 7.69484375 55.48144531 8.25 56.0625 C8.80429687 56.63033203 9.35859375 57.19816406 9.9296875 57.78320312 C11.29334214 59.18212469 12.64760417 60.59019114 14 62 C11.97824316 69.00359785 8.98579324 71.00947117 3 75 C2.01 75 1.02 75 0 75 C0 75.66 0 76.32 0 77 C-6.27899618 79.76392515 -11.3643503 80.43970264 -18.1875 80.3125 C-19.06341797 80.31572266 -19.93933594 80.31894531 -20.84179688 80.32226562 C-25.35184124 80.28465343 -28.89630197 80.05950517 -33 78 C-34.99620166 77.32204472 -36.99538701 76.65266469 -39 76 C-39 75.34 -39 74.68 -39 74 C-40.0209375 73.7215625 -40.0209375 73.7215625 -41.0625 73.4375 C-49.90450703 69.11056039 -55.3058944 59.66855174 -58.875 50.8125 C-62.0543426 40.01796554 -60.57710395 28.13409495 -56 18 C-50.24928853 8.0044067 -42.39376437 0.27309447 -31.2890625 -3.33984375 C-21.03040204 -5.39888605 -9.1061776 -5.69532711 0 0 Z M-24 16 C-24 16.33 -24 16.66 -24 17 C-21.69 17 -19.38 17 -17 17 C-17 16.67 -17 16.34 -17 16 C-19.31 16 -21.62 16 -24 16 Z M-31 17 C-31 17.33 -31 17.66 -31 18 C-29.02 18 -27.04 18 -25 18 C-25 17.67 -25 17.34 -25 17 C-26.98 17 -28.96 17 -31 17 Z M-30 20 C-30.99 20.33 -31.98 20.66 -33 21 C-33 21.66 -33 22.32 -33 23 C-34 24.66666667 -35 26.33333333 -36 28 C-36 28.66 -36 29.32 -36 30 C-36.99 30.495 -36.99 30.495 -38 31 C-38 35.95 -38 40.9 -38 46 C-37.01 46 -36.02 46 -35 46 C-31.66862283 42.56644853 -31.66862283 42.56644853 -31 38 C-30.01 37.67 -29.02 37.34 -28 37 C-27.29848848 35.6846659 -26.63474075 34.34882408 -26 33 C-25.02246356 31.97803008 -24.0194119 30.98020375 -23 30 C-19.71880395 26.51517829 -19.71880395 26.51517829 -19 22 C-18.01 21.67 -17.02 21.34 -16 21 C-16 20.01 -16 19.02 -16 18 C-21.1220546 17.79913511 -25.30921203 17.65460601 -30 20 Z M-37 26 C-36 28 -36 28 -36 28 Z M-40 34 C-39 36 -39 36 -39 36 Z M-40 39 C-40 40.98 -40 42.96 -40 45 C-39.67 45 -39.34 45 -39 45 C-39 43.02 -39 41.04 -39 39 C-39.33 39 -39.66 39 -40 39 Z M-18 49 C-17 51 -17 51 -17 51 Z M-22 53 C-21 55 -21 55 -21 55 Z M-15 78 C-15 78.33 -15 78.66 -15 79 C-13.35 79 -11.7 79 -10 79 C-10 78.67 -10 78.34 -10 78 C-11.65 78 -13.3 78 -15 78 Z " fill="#586AF9" transform="translate(724,66)"/>
<path d="M0 0 C2.0899406 1.58706306 4.0281121 3.26286066 6 5 C6.99 5.33 7.98 5.66 9 6 C10.9375 8.625 10.9375 8.625 13 12 C13.35449219 12.57492188 13.70898438 13.14984375 14.07421875 13.7421875 C18.81781034 21.67756377 19.23157177 27.85558951 18.94140625 36.890625 C18.91400864 38.0315863 18.88661102 39.17254761 18.85838318 40.3480835 C18.76981918 43.9823953 18.66707392 47.61611641 18.5625 51.25 C18.46340145 54.89817026 18.367368 58.54635785 18.27732849 62.19476318 C18.22076971 64.46302033 18.15863115 66.73114634 18.09046936 68.99908447 C18.06391769 70.02064636 18.03736603 71.04220825 18.01000977 72.09472656 C17.98399185 72.99596252 17.95797394 73.89719849 17.9311676 74.82574463 C17.84965168 77.04821015 17.84965168 77.04821015 19 79 C12.4 79 5.8 79 -1 79 C-1.33 78.34 -1.66 77.68 -2 77 C-2.33 76.67 -2.66 76.34 -3 76 C-3.11740599 74.45653931 -3.16726621 72.907868 -3.18945312 71.36010742 C-3.20617065 70.37205612 -3.22288818 69.38400482 -3.2401123 68.36601257 C-3.25368774 67.29003311 -3.26726318 66.21405365 -3.28125 65.10546875 C-3.29965942 64.00656815 -3.31806885 62.90766754 -3.33703613 61.77546692 C-3.3959978 58.24620094 -3.4487001 54.71688518 -3.5 51.1875 C-3.56762402 46.55588636 -3.64136321 41.92442833 -3.71875 37.29296875 C-3.73232544 36.22306198 -3.74590088 35.15315521 -3.7598877 34.05082703 C-3.77660522 33.05331924 -3.79332275 32.05581146 -3.81054688 31.02807617 C-3.82307495 30.15173019 -3.83560303 29.27538422 -3.84851074 28.3724823 C-3.99466296 26.08358366 -4.21524669 24.15633294 -5 22 C-7.40952023 20.75285597 -7.40952023 20.75285597 -10 20 C-10.66 19.67 -11.32 19.34 -12 19 C-18.07323546 18.35680602 -22.63783745 19.09549528 -28 22 C-29.93009687 25.86019374 -30.12986656 29.89961327 -30.20532227 34.1574707 C-30.22526749 35.15813065 -30.24521271 36.15879059 -30.26576233 37.18977356 C-30.29083107 38.79159737 -30.29083107 38.79159737 -30.31640625 40.42578125 C-30.33718735 41.52850876 -30.35796844 42.63123627 -30.37937927 43.76737976 C-30.44464932 47.28235778 -30.50365495 50.79740912 -30.5625 54.3125 C-30.60570665 56.69857523 -30.64932163 59.08464309 -30.69335938 61.47070312 C-30.80030764 67.31372735 -30.90163857 73.15682517 -31 79 C-37.93 79 -44.86 79 -52 79 C-53.17877387 75.46367839 -53.12710246 72.66329829 -53.12939453 68.92993164 C-53.13114685 68.21415451 -53.13289917 67.49837738 -53.13470459 66.76091003 C-53.139107 64.39396747 -53.13619046 62.02709959 -53.1328125 59.66015625 C-53.13348608 58.01492804 -53.13445655 56.36969992 -53.13571167 54.72447205 C-53.13718652 51.27537082 -53.13504117 47.82629548 -53.13037109 44.37719727 C-53.12467841 39.95754207 -53.12795123 35.53794767 -53.13394356 31.11829472 C-53.13755871 27.7202458 -53.13640611 24.32221126 -53.13381577 20.92416191 C-53.13314891 19.29468211 -53.1339665 17.665201 -53.13629532 16.03572273 C-53.13883697 13.75693432 -53.13495967 11.47824401 -53.12939453 9.19946289 C-53.12859894 7.9027919 -53.12780334 6.60612091 -53.12698364 5.27015686 C-53.02439818 2.6283161 -52.79361243 0.5006989 -52 -2 C-49.25 -2.3125 -49.25 -2.3125 -46 -2 C-43.625 0.5 -43.625 0.5 -42 3 C-39.28884619 2.62345086 -37.42867479 2.33681591 -35.25 0.625 C-25.4774399 -6.43296007 -9.99612384 -6.53834515 0 0 Z M-21 16 C-21 16.33 -21 16.66 -21 17 C-18.36 17 -15.72 17 -13 17 C-13 16.67 -13 16.34 -13 16 C-15.64 16 -18.28 16 -21 16 Z M-31 25 C-30 27 -30 27 -30 27 Z M17 26 C18 30 18 30 18 30 Z M-33 29 C-32 32 -32 32 -32 32 Z " fill="#5667F6" transform="translate(1009,67)"/>
<path d="M0 0 C0.78052734 0.00322266 1.56105469 0.00644531 2.36523438 0.00976562 C3.53022461 -0.0144043 3.53022461 -0.0144043 4.71875 -0.0390625 C10.36392993 -0.04392484 10.36392993 -0.04392484 12.65795898 1.44604492 C14.53024519 4.21253588 14.24907799 6.39264944 14.18554688 9.70507812 C14.17136719 10.95417969 14.1571875 12.20328125 14.14257812 13.49023438 C14.09810547 15.44896484 14.09810547 15.44896484 14.05273438 17.44726562 C14.0095942 20.03313831 13.97031211 22.61907928 13.93554688 25.20507812 C13.89905029 26.92815186 13.89905029 26.92815186 13.86181641 28.68603516 C13.62284633 31.24711439 13.62284633 31.24711439 14.92773438 32.32226562 C16.8172894 32.48044956 18.71237965 32.5734393 20.60742188 32.63867188 C22.34185547 32.70151367 22.34185547 32.70151367 24.11132812 32.765625 C25.32949219 32.80494141 26.54765625 32.84425781 27.80273438 32.88476562 C29.61837891 32.94954102 29.61837891 32.94954102 31.47070312 33.015625 C37.69782749 33.24171184 37.69782749 33.24171184 43.92773438 33.32226562 C43.92773438 40.25226563 43.92773438 47.18226562 43.92773438 54.32226562 C34.35773437 54.65226562 24.78773438 54.98226562 14.92773438 55.32226562 C13.63996835 60.47332972 13.62542382 65.34495674 13.55273438 70.63476562 C13.51535156 71.65505859 13.47796875 72.67535156 13.43945312 73.7265625 C13.35951472 80.5968243 14.09757721 84.30526857 18.92773438 89.32226562 C21.67846899 90.27589599 24.32438215 90.48279545 27.22070312 90.60351562 C28.01541016 90.64089844 28.81011719 90.67828125 29.62890625 90.71679688 C31.29815611 90.78760559 32.96742738 90.85791119 34.63671875 90.92773438 C40.82575753 91.22028878 40.82575753 91.22028878 41.92773438 92.32226562 C42.0144287 93.81098422 42.03476931 95.30371062 42.02539062 96.79492188 C42.02216797 97.69404297 42.01894531 98.59316406 42.015625 99.51953125 C42.00305664 100.93782227 42.00305664 100.93782227 41.99023438 102.38476562 C41.98572266 103.33416016 41.98121094 104.28355469 41.9765625 105.26171875 C41.96473548 107.61529628 41.94825463 109.9687504 41.92773438 112.32226562 C38.30315507 112.51858587 34.6780617 112.70282541 31.05273438 112.88476562 C29.50392578 112.96887695 29.50392578 112.96887695 27.92382812 113.0546875 C26.93769531 113.10302734 25.9515625 113.15136719 24.93554688 113.20117188 C23.56873779 113.2718689 23.56873779 113.2718689 22.17431641 113.34399414 C19.92773438 113.32226562 19.92773438 113.32226562 17.92773438 112.32226562 C16.55675391 111.79094187 15.18127314 111.27115904 13.80273438 110.75976562 C13.07828125 110.49035156 12.35382812 110.2209375 11.60742188 109.94335938 C11.053125 109.73839844 10.49882813 109.5334375 9.92773438 109.32226562 C9.92773438 108.66226563 9.92773438 108.00226563 9.92773438 107.32226562 C8.44273437 106.82726562 8.44273437 106.82726562 6.92773438 106.32226562 C0.20256449 101.49393853 -5.43653446 94.22945913 -8.07226562 86.32226562 C-8.22405577 83.96672083 -8.32125852 81.60751439 -8.38867188 79.24804688 C-8.40945297 78.56421432 -8.43023407 77.88038177 -8.4516449 77.17582703 C-8.51692717 74.99557353 -8.5759258 72.81520157 -8.63476562 70.63476562 C-8.67797116 69.15493576 -8.7215861 67.6751178 -8.765625 66.1953125 C-8.87258645 62.57108941 -8.97391386 58.94673373 -9.07226562 55.32226562 C-10.18601562 55.21914062 -11.29976562 55.11601563 -12.44726562 55.00976562 C-14.24164062 54.66945313 -14.24164062 54.66945313 -16.07226562 54.32226562 C-18.57732686 50.56467377 -18.33271192 47.60198985 -18.25976562 43.25976562 C-18.25912109 42.52693359 -18.25847656 41.79410156 -18.2578125 41.0390625 C-18.21289062 35.60351562 -18.21289062 35.60351562 -17.07226562 33.32226562 C-14.10226562 33.32226562 -11.13226562 33.32226562 -8.07226562 33.32226562 C-8.08273926 32.39365723 -8.09321289 31.46504883 -8.10400391 30.50830078 C-8.13805767 27.06800873 -8.16315056 23.62789536 -8.18212891 20.1875 C-8.19219605 18.69756243 -8.2058508 17.20764465 -8.22314453 15.71777344 C-8.24736215 13.57807535 -8.25874126 11.4386381 -8.26757812 9.29882812 C-8.27805176 8.01057129 -8.28852539 6.72231445 -8.29931641 5.39501953 C-7.88020333 -0.27697741 -5.03778527 0.04781332 0 0 Z M11.92773438 54.32226562 C12.92773438 58.32226562 12.92773438 58.32226562 12.92773438 58.32226562 Z M10.92773438 77.32226562 C11.92773438 79.32226562 11.92773438 79.32226562 11.92773438 79.32226562 Z " fill="#5668F8" transform="translate(614.072265625,31.677734375)"/>
<path d="M0 0 C6.93 0 13.86 0 21 0 C21 35.64 21 71.28 21 108 C14.07 108 7.14 108 0 108 C-0.92282063 105.23153811 -1.12555695 103.5963351 -1.12698364 100.74241638 C-1.12980347 99.87452484 -1.13262329 99.0066333 -1.13552856 98.11244202 C-1.13350433 97.16324387 -1.1314801 96.21404572 -1.12939453 95.23608398 C-1.13114685 94.23424072 -1.13289917 93.23239746 -1.13470459 92.20019531 C-1.13911299 88.88214394 -1.13618887 85.56414568 -1.1328125 82.24609375 C-1.13348578 79.94588714 -1.134456 77.64568061 -1.13571167 75.34547424 C-1.13718723 70.52270837 -1.13503842 65.69996099 -1.13037109 60.87719727 C-1.1246707 54.68392434 -1.12795569 48.49069471 -1.13394356 42.29742336 C-1.13755026 37.54750744 -1.13641013 32.79760185 -1.13381577 28.04768562 C-1.13314696 25.76343849 -1.13397329 23.47919043 -1.13629532 21.19494438 C-1.13882395 18.00811131 -1.13497836 14.82134924 -1.12939453 11.63452148 C-1.13141876 10.6832991 -1.13344299 9.73207672 -1.13552856 8.75202942 C-1.13270874 7.8869577 -1.12988892 7.02188599 -1.12698364 6.13059998 C-1.12660662 5.3767826 -1.12622959 4.62296522 -1.12584114 3.84630489 C-1 2 -1 2 0 0 Z " fill="#5466F6" transform="translate(1145,38)"/>
<path d="M0 0 C1.00804687 0.0515625 2.01609375 0.103125 3.0546875 0.15625 C4.09625 0.22070312 5.1378125 0.28515625 6.2109375 0.3515625 C8.28644696 0.4637522 10.36196732 0.57574055 12.4375 0.6875 C13.81156006 0.76943604 13.81156006 0.76943604 15.21337891 0.85302734 C17.00228182 0.94617253 18.79461128 0.9765625 20.5859375 0.9765625 C20.5859375 7.9065625 20.5859375 14.8365625 20.5859375 21.9765625 C18.32556641 22.01523438 18.32556641 22.01523438 16.01953125 22.0546875 C14.02080521 22.11098964 12.02210842 22.16833649 10.0234375 22.2265625 C9.03279297 22.24074219 8.04214844 22.25492188 7.02148438 22.26953125 C0.72372266 22.47875921 -3.35055128 23.11738181 -8.4140625 26.9765625 C-12.42256842 31.71904518 -11.87177998 36.99770407 -11.890625 42.89453125 C-11.90620453 43.94812332 -11.92178406 45.00171539 -11.93783569 46.0872345 C-11.98529785 49.44616992 -12.0131063 52.80489788 -12.0390625 56.1640625 C-12.07553612 59.53379323 -12.11611834 62.90340593 -12.16171265 66.27302551 C-12.18896803 68.36856687 -12.21030675 70.46419491 -12.22525024 72.55986023 C-12.24064346 73.97692009 -12.24064346 73.97692009 -12.25634766 75.42260742 C-12.26284332 76.25580002 -12.26933899 77.08899261 -12.27603149 77.94743347 C-12.4140625 79.9765625 -12.4140625 79.9765625 -13.4140625 81.9765625 C-20.0140625 81.9765625 -26.6140625 81.9765625 -33.4140625 81.9765625 C-34.58131371 78.47480886 -34.55403819 75.33313392 -34.54345703 71.69116211 C-34.54520935 70.95266525 -34.54696167 70.2141684 -34.54876709 69.45329285 C-34.55316907 67.01180676 -34.55025372 64.57039308 -34.546875 62.12890625 C-34.54754844 60.43404629 -34.54851881 58.73918642 -34.54977417 57.04432678 C-34.55124884 53.4926766 -34.54910371 49.94105156 -34.54443359 46.3894043 C-34.5387321 41.83054831 -34.54201943 37.27175114 -34.54800606 32.7128973 C-34.55161417 29.21370498 -34.550472 25.71452668 -34.54787827 22.21533394 C-34.54720992 20.53396154 -34.54803422 18.85258789 -34.55035782 17.17121696 C-34.5528889 14.82496629 -34.54903748 12.47881184 -34.54345703 10.13256836 C-34.54649338 9.0844397 -34.54649338 9.0844397 -34.54959106 8.01513672 C-34.52832802 3.20509353 -34.52832802 3.20509353 -33.4140625 0.9765625 C-27.90818015 1.46597426 -27.90818015 1.46597426 -25.5390625 3.9140625 C-24.4140625 5.9765625 -24.4140625 5.9765625 -24.4140625 7.9765625 C-20.1633328 6.70134359 -16.35667408 5.02627327 -12.44140625 2.9765625 C-8.09475245 0.8325483 -4.8962372 -0.27922041 0 0 Z " fill="#5566F5" transform="translate(573.4140625,64.0234375)"/>
<path d="M0 0 C0.7895961 0.00404846 1.5791922 0.00809692 2.39271545 0.01226807 C3.2040242 0.01035461 4.01533295 0.00844116 4.85122681 0.00646973 C6.56859141 0.00510765 8.28596629 0.00880568 10.00331116 0.01715088 C12.63269719 0.02783648 15.26139783 0.01726371 17.89076233 0.00445557 C19.55808155 0.00577743 21.22540034 0.00834038 22.89271545 0.01226807 C23.68028732 0.0082196 24.46785919 0.00417114 25.27929688 0 C29.11561337 0.03294624 30.94169781 0.09961047 34.2091217 2.27789307 C34.5007132 5.16283237 34.60502708 7.82977244 34.57240295 10.71539307 C34.57315071 11.96920776 34.57315071 11.96920776 34.57391357 13.24835205 C34.57157129 15.01701228 34.56183367 16.78567572 34.54530334 18.55426025 C34.52171531 21.26712739 34.52474037 23.97901201 34.53138733 26.69195557 C34.5258106 28.40810728 34.51870075 30.12425484 34.50990295 31.84039307 C34.51127007 33.06230347 34.51127007 33.06230347 34.51266479 34.30889893 C34.44014328 40.04687149 34.44014328 40.04687149 32.2091217 42.27789307 C29.36372028 42.47779534 26.61774387 42.55766282 23.7716217 42.54351807 C22.93574524 42.54543152 22.09986877 42.54734497 21.23866272 42.54931641 C19.47002359 42.55067842 17.70137448 42.54698083 15.93275452 42.53863525 C13.21996177 42.52793582 10.50783127 42.53852983 7.7950592 42.55133057 C6.0789119 42.55000897 4.36276502 42.54744659 2.6466217 42.54351807 C1.83201477 42.54756653 1.01740784 42.55161499 0.17811584 42.55578613 C-5.56095902 42.50781235 -5.56095902 42.50781235 -7.7908783 40.27789307 C-7.99078057 37.43249164 -8.07064805 34.68651523 -8.0565033 31.84039307 C-8.05841675 31.0045166 -8.0603302 30.16864014 -8.06230164 29.30743408 C-8.06366365 27.53879496 -8.05996606 25.77014584 -8.05162048 24.00152588 C-8.04092105 21.28873313 -8.05151506 18.57660263 -8.0643158 15.86383057 C-8.0629942 14.14768327 -8.06043182 12.43153638 -8.0565033 10.71539307 C-8.06055176 9.90078613 -8.06460022 9.0861792 -8.06877136 8.24688721 C-8.01087217 1.32044237 -6.96338434 0.06005936 0 0 Z M-4.7908783 40.27789307 C-4.7908783 40.60789307 -4.7908783 40.93789307 -4.7908783 41.27789307 C7.0891217 41.27789307 18.9691217 41.27789307 31.2091217 41.27789307 C31.2091217 40.94789307 31.2091217 40.61789307 31.2091217 40.27789307 C19.3291217 40.27789307 7.4491217 40.27789307 -4.7908783 40.27789307 Z " fill="#586AFB" transform="translate(121.79087829589844,93.72210693359375)"/>
<path d="M0 0 C1.27423828 -0.00193359 1.27423828 -0.00193359 2.57421875 -0.00390625 C3.91419922 0.00189453 3.91419922 0.00189453 5.28125 0.0078125 C6.17457031 0.00394531 7.06789063 0.00007813 7.98828125 -0.00390625 C8.83777344 -0.00261719 9.68726563 -0.00132813 10.5625 0 C11.34689453 0.00112793 12.13128906 0.00225586 12.93945312 0.00341797 C14.78125 0.1328125 14.78125 0.1328125 15.78125 1.1328125 C15.87092915 3.55635528 15.89623362 5.9511535 15.87890625 8.37475586 C15.87744598 9.1324678 15.87598572 9.89017975 15.8744812 10.67085266 C15.87066616 12.32147302 15.86454018 13.97208924 15.85641479 15.62269402 C15.8437049 18.2319152 15.83714935 20.84108584 15.83227539 23.45033264 C15.81886878 29.93222652 15.79467609 36.41407255 15.77087402 42.89593506 C15.75118434 48.36788724 15.73552534 53.83982168 15.72531128 59.3118 C15.71880659 61.88774402 15.7062972 64.46361562 15.69360352 67.03953552 C15.68997199 68.61351457 15.68662013 70.18749429 15.68359375 71.76147461 C15.67842743 72.48207062 15.67326111 73.20266663 15.66793823 73.94509888 C15.61243158 77.66322968 15.61243158 77.66322968 16.78125 81.1328125 C13.48974875 81.21966537 10.1985404 81.27315145 6.90625 81.3203125 C5.96910156 81.34544922 5.03195312 81.37058594 4.06640625 81.39648438 C3.17050781 81.40615234 2.27460937 81.41582031 1.3515625 81.42578125 C0.52414551 81.4414917 -0.30327148 81.45720215 -1.15576172 81.47338867 C-1.83654785 81.36099854 -2.51733398 81.2486084 -3.21875 81.1328125 C-5.62764649 77.51946776 -5.49479786 74.91146179 -5.46166992 70.73974609 C-5.46356827 69.98988937 -5.46546661 69.24003265 -5.46742249 68.467453 C-5.47112771 65.98861237 -5.46043143 63.51006459 -5.44921875 61.03125 C-5.4480269 59.31157465 -5.4475738 57.59189864 -5.4478302 55.8722229 C-5.44626588 52.26926597 -5.43797878 48.66640848 -5.42456055 45.06347656 C-5.40754526 40.43501301 -5.40374695 35.80665851 -5.40450573 31.17816734 C-5.40423444 27.62839712 -5.39876034 24.07865095 -5.39150429 20.5288887 C-5.38831289 18.82157193 -5.38634912 17.11425243 -5.38561058 15.40693283 C-5.38345343 13.02693743 -5.37472363 10.64706008 -5.36401367 8.26708984 C-5.36446686 7.55539139 -5.36492004 6.84369293 -5.36538696 6.11042786 C-5.33031712 0.80734562 -5.30877446 0.00763382 0 0 Z " fill="#5668F8" transform="translate(832.21875,64.8671875)"/>
<path d="M0 0 C5.37513189 -0.0740324 10.74996854 -0.12854569 16.12548828 -0.16479492 C17.95496793 -0.17990251 19.78441125 -0.20038968 21.61376953 -0.22631836 C24.23999992 -0.26261585 26.86575249 -0.27970615 29.4921875 -0.29296875 C30.31306854 -0.30845261 31.13394958 -0.32393646 31.97970581 -0.33988953 C34.28466797 -0.34057617 34.28466797 -0.34057617 38 0 C38.66 0.99 39.32 1.98 40 3 C40.33 2.34 40.66 1.68 41 1 C41 14.2 41 27.4 41 41 C37.80348463 42.59825768 34.32933447 42.20541665 30.81640625 42.23828125 C30.0050975 42.246353 29.19378876 42.25442474 28.3578949 42.26274109 C26.64055518 42.27657837 24.923188 42.28730212 23.20581055 42.29516602 C20.57613374 42.31241059 17.94770405 42.35630138 15.31835938 42.40039062 C13.65105092 42.41051482 11.98373178 42.41903178 10.31640625 42.42578125 C9.52883438 42.44328934 8.74126251 42.46079742 7.92982483 42.47883606 C4.7467342 42.46615042 2.57744189 42.44198386 0.00073242 40.46972656 C-1.40382502 37.00339255 -1.38987215 33.73700626 -1.328125 30.05859375 C-1.32625183 29.29450699 -1.32437866 28.53042023 -1.32244873 27.74317932 C-1.31574053 26.13188293 -1.30185043 24.52060249 -1.28125 22.90942383 C-1.25006596 20.44271714 -1.2402737 17.97665002 -1.234375 15.50976562 C-1.22520543 13.94270054 -1.21482981 12.37564195 -1.203125 10.80859375 C-1.19887512 10.07104355 -1.19462524 9.33349335 -1.19024658 8.57359314 C-1.14668112 5.45571712 -0.99323673 2.97971019 0 0 Z M39 4 C39 15.55 39 27.1 39 39 C39.33 39 39.66 39 40 39 C40 27.45 40 15.9 40 4 C39.67 4 39.34 4 39 4 Z M3 40 C3 40.33 3 40.66 3 41 C14.55 41 26.1 41 38 41 C38 40.67 38 40.34 38 40 C26.45 40 14.9 40 3 40 Z " fill="#5466F4" transform="translate(65,94)"/>
<path d="M0 0 C5.65999023 -0.02467467 11.31994932 -0.04284788 16.97998047 -0.05493164 C18.90641831 -0.05996787 20.83285231 -0.06679712 22.75927734 -0.07543945 C25.52442368 -0.08753608 28.28951958 -0.09323533 31.0546875 -0.09765625 C32.3516304 -0.10539818 32.3516304 -0.10539818 33.67477417 -0.11329651 C39.77225659 -0.11387171 39.77225659 -0.11387171 42 1 C41.67 13.54 41.34 26.08 41 39 C40.34 39 39.68 39 39 39 C39.66 39.66 40.32 40.32 41 41 C27.8 41 14.6 41 1 41 C1.99 40.505 1.99 40.505 3 40 C2.01 39.34 1.02 38.68 0 38 C-0.26660183 35.09165115 -0.34779124 32.39861732 -0.29296875 29.4921875 C-0.28660149 28.23125778 -0.28660149 28.23125778 -0.28010559 26.94485474 C-0.26328532 24.25458007 -0.22562781 21.56504901 -0.1875 18.875 C-0.17245745 17.05339622 -0.1587683 15.23178072 -0.14648438 13.41015625 C-0.11337094 8.93981676 -0.06156637 4.47003454 0 0 Z M40 2 C41 5 41 5 41 5 Z " fill="#5667F3" transform="translate(114,145)"/>
<path d="M0 0 C4.19555155 1.75627739 6.39886984 5.27915757 8.6875 9.125 C8.6875 9.785 8.6875 10.445 8.6875 11.125 C9.3475 11.125 10.0075 11.125 10.6875 11.125 C11.67451449 12.53291619 12.65261925 13.94837148 13.57275391 15.40087891 C16.05571581 19.24114981 18.9766858 22.79423521 21.76171875 26.41796875 C23.6875 29.125 23.6875 29.125 24.6875 32.125 C23.0375 32.785 21.3875 33.445 19.6875 34.125 C19.6875 34.785 19.6875 35.445 19.6875 36.125 C18.0375 36.785 16.3875 37.445 14.6875 38.125 C14.6875 37.465 14.6875 36.805 14.6875 36.125 C13.6975 36.62 13.6975 36.62 12.6875 37.125 C12.6875 38.445 12.6875 39.765 12.6875 41.125 C11.2265625 42.609375 11.2265625 42.609375 9.3125 43.875 C8.37277344 44.51695313 8.37277344 44.51695313 7.4140625 45.171875 C5.6875 46.125 5.6875 46.125 3.6875 46.125 C3.3575 47.115 3.0275 48.105 2.6875 49.125 C1.04416496 50.16289581 -0.62493867 51.16067924 -2.3125 52.125 C-2.828125 52.7025 -3.34375 53.28 -3.875 53.875 C-4.349375 54.2875 -4.82375 54.7 -5.3125 55.125 C-7.5 54.8125 -7.5 54.8125 -9.3125 54.125 C-9.3125 53.135 -9.3125 52.145 -9.3125 51.125 C-9.9725 51.125 -10.6325 51.125 -11.3125 51.125 C-12.6875 49.39453125 -12.6875 49.39453125 -14.3125 46.9375 C-17.6267419 42.04272678 -21.15671087 37.38177938 -24.84765625 32.76879883 C-27.49868508 29.39557505 -29.51719761 26.01870778 -31.3125 22.125 C-29.19191855 20.45242872 -27.06645924 18.78684582 -24.9375 17.125 C-24.33421875 16.64804688 -23.7309375 16.17109375 -23.109375 15.6796875 C-18.5390625 12.125 -18.5390625 12.125 -16.3125 12.125 C-16.3125 11.465 -16.3125 10.805 -16.3125 10.125 C-14.59416524 8.72465928 -12.81120901 7.40294773 -11 6.125 C-10.01386719 5.42375 -9.02773437 4.7225 -8.01171875 4 C-2.44352943 0.13208267 -2.44352943 0.13208267 0 0 Z M1.6875 45.125 C2.6875 47.125 2.6875 47.125 2.6875 47.125 Z M-8.3125 51.125 C-7.3125 53.125 -7.3125 53.125 -7.3125 53.125 Z " fill="#5869F8" transform="translate(212.3125,61.875)"/>
<path d="M0 0 C9.44877106 -0.78861459 14.69321816 0.00793323 22 6 C23.91158309 7.38205869 25.82843881 8.75684843 27.75 10.125 C35.03045455 15.42568182 35.03045455 15.42568182 38 18 C38 18.66 38 19.32 38 20 C37.34 20 36.68 20 36 20 C35.67 21.32 35.34 22.64 35 24 C34.34 24 33.68 24 33 24 C32.896875 24.639375 32.79375 25.27875 32.6875 25.9375 C32.460625 26.618125 32.23375 27.29875 32 28 C31.01 28.33 30.02 28.66 29 29 C28.6212866 30.32116049 28.29588628 31.65785984 28 33 C26.73046875 35.18359375 26.73046875 35.18359375 25.1875 37.4375 C24.64996094 38.22382812 24.11242187 39.01015625 23.55859375 39.8203125 C21.79406541 42.28799874 19.89467814 44.63165232 18 47 C17.29114106 48.31138904 16.60543548 49.63777017 16 51 C12.90694578 50.39096941 10.80360238 49.40131197 8.25 47.5625 C7.63640625 47.13066406 7.0228125 46.69882812 6.390625 46.25390625 C5.93171875 45.84011719 5.4728125 45.42632812 5 45 C5 44.34 5 43.68 5 43 C3.515 42.505 3.515 42.505 2 42 C-0.17506454 40.55090224 -2.31163798 39.08029423 -4.4375 37.5625 C-9.50619024 33.92946717 -9.50619024 33.92946717 -15 31 C-15 30.34 -15 29.68 -15 29 C-15.99 28.67 -16.98 28.34 -18 28 C-17.38441495 23.9986972 -15.36262141 21.22175647 -13 18 C-12.34 17.67 -11.68 17.34 -11 17 C-10.00983547 15.3167203 -9.02414318 13.63035559 -8.078125 11.921875 C-6.52314146 9.14994783 -4.87837895 6.56711789 -3 4 C-2.34 4 -1.68 4 -1 4 C-0.67 2.68 -0.34 1.36 0 0 Z M15 47 C16 50 16 50 16 50 Z " fill="#5769F8" transform="translate(163,0)"/>
<path d="M0 0 C5.39346988 -0.02464849 10.78690725 -0.04283531 16.18041992 -0.05493164 C18.01668875 -0.05997231 19.85295354 -0.06680477 21.68920898 -0.07543945 C24.32276401 -0.08751672 26.95626616 -0.09323081 29.58984375 -0.09765625 C30.41588608 -0.10281754 31.24192841 -0.10797882 32.09300232 -0.11329651 C34.06236368 -0.11349205 36.03161614 -0.06204152 38 0 C39 1 39 1 39.11352539 4.60180664 C39.11336625 6.20459856 39.10767063 7.8073956 39.09765625 9.41015625 C39.0962413 10.25219101 39.09482635 11.09422577 39.09336853 11.96177673 C39.08775263 14.66205335 39.07519748 17.36224828 39.0625 20.0625 C39.05748705 21.88867068 39.05292379 23.71484266 39.04882812 25.54101562 C39.03777804 30.02737542 39.02050279 34.51367384 39 39 C33.46411467 39.02464775 27.928261 39.04283496 22.39233398 39.05493164 C20.5075627 39.05997244 18.62279535 39.06680498 16.73803711 39.07543945 C14.03498364 39.08751617 11.33198169 39.09323068 8.62890625 39.09765625 C7.78099014 39.10281754 6.93307404 39.10797882 6.0594635 39.11329651 C4.03928932 39.11349195 2.01922066 39.06206211 0 39 C-1.78365341 37.21634659 -1.12846636 34.82382995 -1.13894653 32.44923401 C-1.1369223 31.67321335 -1.13489807 30.89719269 -1.1328125 30.09765625 C-1.13376923 29.30475693 -1.13472595 28.5118576 -1.13571167 27.69493103 C-1.13639351 26.0144747 -1.13453896 24.33401575 -1.13037109 22.65356445 C-1.1250299 20.07692555 -1.13031228 17.50046152 -1.13671875 14.92382812 C-1.13605783 13.29427045 -1.13477638 11.66471288 -1.1328125 10.03515625 C-1.13483673 9.26115982 -1.13686096 8.48716339 -1.13894653 7.68971252 C-1.11495583 2.22991166 -1.11495583 2.22991166 0 0 Z " fill="#4F62FA" transform="translate(165,145)"/>
<path d="M0 0 C5.39346988 -0.02464849 10.78690725 -0.04283531 16.18041992 -0.05493164 C18.01668875 -0.05997231 19.85295354 -0.06680477 21.68920898 -0.07543945 C24.32276401 -0.08751672 26.95626616 -0.09323081 29.58984375 -0.09765625 C30.41588608 -0.10281754 31.24192841 -0.10797882 32.09300232 -0.11329651 C34.06236368 -0.11349205 36.03161614 -0.06204152 38 0 C39 1 39 1 39.11352539 4.60180664 C39.11336625 6.20459856 39.10767063 7.8073956 39.09765625 9.41015625 C39.0962413 10.25219101 39.09482635 11.09422577 39.09336853 11.96177673 C39.08775263 14.66205335 39.07519748 17.36224828 39.0625 20.0625 C39.05748705 21.88867068 39.05292379 23.71484266 39.04882812 25.54101562 C39.03777804 30.02737542 39.02050279 34.51367384 39 39 C33.46411467 39.02464775 27.928261 39.04283496 22.39233398 39.05493164 C20.5075627 39.05997244 18.62279535 39.06680498 16.73803711 39.07543945 C14.03498364 39.08751617 11.33198169 39.09323068 8.62890625 39.09765625 C7.78099014 39.10281754 6.93307404 39.10797882 6.0594635 39.11329651 C4.03928932 39.11349195 2.01922066 39.06206211 0 39 C-1.78365341 37.21634659 -1.12846636 34.82382995 -1.13894653 32.44923401 C-1.1369223 31.67321335 -1.13489807 30.89719269 -1.1328125 30.09765625 C-1.13376923 29.30475693 -1.13472595 28.5118576 -1.13571167 27.69493103 C-1.13639351 26.0144747 -1.13453896 24.33401575 -1.13037109 22.65356445 C-1.1250299 20.07692555 -1.13031228 17.50046152 -1.13671875 14.92382812 C-1.13605783 13.29427045 -1.13477638 11.66471288 -1.1328125 10.03515625 C-1.13483673 9.26115982 -1.13686096 8.48716339 -1.13894653 7.68971252 C-1.11495583 2.22991166 -1.11495583 2.22991166 0 0 Z " fill="#4F62FA" transform="translate(65,145)"/>
<path d="M0 0 C5.39346988 -0.02464849 10.78690725 -0.04283531 16.18041992 -0.05493164 C18.01668875 -0.05997231 19.85295354 -0.06680477 21.68920898 -0.07543945 C24.32276401 -0.08751672 26.95626616 -0.09323081 29.58984375 -0.09765625 C30.41588608 -0.10281754 31.24192841 -0.10797882 32.09300232 -0.11329651 C34.06236368 -0.11349205 36.03161614 -0.06204152 38 0 C39 1 39 1 39.11352539 4.60180664 C39.11336625 6.20459856 39.10767063 7.8073956 39.09765625 9.41015625 C39.0962413 10.25219101 39.09482635 11.09422577 39.09336853 11.96177673 C39.08775263 14.66205335 39.07519748 17.36224828 39.0625 20.0625 C39.05748705 21.88867068 39.05292379 23.71484266 39.04882812 25.54101562 C39.03777804 30.02737542 39.02050279 34.51367384 39 39 C33.46411467 39.02464775 27.928261 39.04283496 22.39233398 39.05493164 C20.5075627 39.05997244 18.62279535 39.06680498 16.73803711 39.07543945 C14.03498364 39.08751617 11.33198169 39.09323068 8.62890625 39.09765625 C7.78099014 39.10281754 6.93307404 39.10797882 6.0594635 39.11329651 C4.03928932 39.11349195 2.01922066 39.06206211 0 39 C-1.78365341 37.21634659 -1.12846636 34.82382995 -1.13894653 32.44923401 C-1.1369223 31.67321335 -1.13489807 30.89719269 -1.1328125 30.09765625 C-1.13376923 29.30475693 -1.13472595 28.5118576 -1.13571167 27.69493103 C-1.13639351 26.0144747 -1.13453896 24.33401575 -1.13037109 22.65356445 C-1.1250299 20.07692555 -1.13031228 17.50046152 -1.13671875 14.92382812 C-1.13605783 13.29427045 -1.13477638 11.66471288 -1.1328125 10.03515625 C-1.13483673 9.26115982 -1.13686096 8.48716339 -1.13894653 7.68971252 C-1.11495583 2.22991166 -1.11495583 2.22991166 0 0 Z " fill="#4F62FA" transform="translate(65,45)"/>
<path d="M0 0 C13.2 0 26.4 0 40 0 C40 7.92 40 15.84 40 24 C34.4640601 24.02290734 28.92828345 24.04283491 23.39233398 24.05493164 C21.5075627 24.05997244 19.62279535 24.06680498 17.73803711 24.07543945 C15.03498364 24.08751617 12.33198169 24.09323068 9.62890625 24.09765625 C8.78099014 24.10281754 7.93307404 24.10797882 7.0594635 24.11329651 C5.03928932 24.11349195 3.01922066 24.06206211 1 24 C0 23 0 23 -0.11352539 20.77514648 C-0.10828857 19.81680908 -0.10305176 18.85847168 -0.09765625 17.87109375 C-0.09515869 16.93966553 -0.09266113 16.0082373 -0.09008789 15.04858398 C-0.08098389 13.85692627 -0.07187988 12.66526855 -0.0625 11.4375 C-0.041875 7.663125 -0.02125 3.88875 0 0 Z " fill="#5164FC" transform="translate(224,0)"/>
<path d="M0 0 C4.51947709 2.41451516 8.11298489 5.12908414 10 10 C10.57417515 14.32320112 10.47889687 18.28165469 8 22 C7.34 22 6.68 22 6 22 C5.67 22.99 5.34 23.98 5 25 C2.16102212 26.64490134 -0.76701885 27.49337775 -4 28 C-8.70927172 26.68758001 -11.92110142 24.81783424 -15 21 C-15 20.34 -15 19.68 -15 19 C-15.66 19 -16.32 19 -17 19 C-18.0019804 13.99009798 -18.35428335 10.61047157 -16 6 C-11.633394 0.59431496 -6.90993892 -1.79847725 0 0 Z M8 10 C9 12 9 12 9 12 Z " fill="#5E6EF7" transform="translate(842,30)"/>
<path d="M0 0 C0.79273315 0.00404846 1.58546631 0.00809692 2.40222168 0.01226807 C3.62274231 0.00939789 3.62274231 0.00939789 4.86791992 0.00646973 C6.58948068 0.0051078 8.31105171 0.00880479 10.03259277 0.01715088 C12.67296338 0.02785048 15.31265357 0.01725607 17.95300293 0.00445557 C19.62357735 0.00577716 21.29415135 0.00833955 22.96472168 0.01226807 C23.75745483 0.0082196 24.55018799 0.00417114 25.36694336 0 C30.95355141 0.04797279 30.95355141 0.04797279 33.18347168 2.27789307 C29.94835035 3.89545373 26.43691949 3.27676481 22.89440918 3.15679932 C21.80640015 3.12580139 21.80640015 3.12580139 20.69641113 3.09417725 C17.98359128 3.0153376 15.27104476 2.92730962 12.55847168 2.84039307 C6.49472168 2.65476807 0.43097168 2.46914307 -5.81652832 2.27789307 C-5.48652832 15.14789307 -5.15652832 28.01789307 -4.81652832 41.27789307 C7.39347168 41.27789307 19.60347168 41.27789307 32.18347168 41.27789307 C32.18347168 41.60789307 32.18347168 41.93789307 32.18347168 42.27789307 C26.80832263 42.32724816 21.43330483 42.36359108 16.0579834 42.38775635 C14.22853295 42.39782791 12.39909865 42.41148582 10.56970215 42.42877197 C7.94352234 42.45296984 5.31755493 42.46436439 2.69128418 42.47320557 C1.45996262 42.48868942 1.45996262 42.48868942 0.20376587 42.50448608 C-1.80441974 42.50488491 -3.81208214 42.40038846 -5.81652832 42.27789307 C-8.41958724 39.67483415 -8.0647781 37.85510768 -8.09442139 34.30889893 C-8.09037292 33.49429199 -8.08632446 32.67968506 -8.08215332 31.84039307 C-8.08406677 31.0045166 -8.08598022 30.16864014 -8.08795166 29.30743408 C-8.08931368 27.53879496 -8.08561608 25.77014584 -8.07727051 24.00152588 C-8.06657107 21.28873313 -8.07716508 18.57660263 -8.08996582 15.86383057 C-8.08864423 14.14768327 -8.08608184 12.43153638 -8.08215332 10.71539307 C-8.08620178 9.90078613 -8.09025024 9.0861792 -8.09442139 8.24688721 C-8.03637562 1.30290698 -6.97561226 0.05990032 0 0 Z " fill="#979CE1" transform="translate(121.8165283203125,93.72210693359375)"/>
<path d="M0 0 C5.88988947 -0.02475223 11.77974854 -0.04288482 17.66967773 -0.05493164 C19.67261279 -0.05995478 21.67554419 -0.06677445 23.6784668 -0.07543945 C26.56039331 -0.08759345 29.44227125 -0.09324857 32.32421875 -0.09765625 C33.66355721 -0.10539818 33.66355721 -0.10539818 35.029953 -0.11329651 C39.1527264 -0.113667 42.97964792 -0.04768418 47 1 C46.67 1.66 46.34 2.32 46 3 C30.82 3 15.64 3 0 3 C0 2.01 0 1.02 0 0 Z " fill="#E8E6EF" transform="translate(748,123)"/>
<path d="M0 0 C0.33 0 0.66 0 1 0 C1 26.4 1 52.8 1 80 C0.67 80 0.34 80 0 80 C0 53.6 0 27.2 0 0 Z " fill="#000002" transform="translate(941,65)"/>
<path d="M0 0 C0.33 0 0.66 0 1 0 C1 26.4 1 52.8 1 80 C0.67 80 0.34 80 0 80 C0 53.6 0 27.2 0 0 Z " fill="#000002" transform="translate(849,65)"/>
<path d="M0 0 C-1.32 0.33 -2.64 0.66 -4 1 C-4 1.66 -4 2.32 -4 3 C-6.78785768 6.02017916 -9.66910747 8.60592099 -13 11 C-14.67036393 12.32869858 -16.33784732 13.66104368 -18 15 C-17.26490471 8.79493096 -13.512104 5.95663665 -9 2 C-5.64781778 -0.51413666 -3.99553293 -1.62780971 0 0 Z " fill="#8D96F2" transform="translate(467,67)"/>
<path d="M0 0 C2.79173055 -0.02690104 5.58320348 -0.04679053 8.375 -0.0625 C9.56609375 -0.07506836 9.56609375 -0.07506836 10.78125 -0.08789062 C16.7734375 -0.11328125 16.7734375 -0.11328125 19 1 C19 1.66 19 2.32 19 3 C12.73 3 6.46 3 0 3 C0 2.01 0 1.02 0 0 Z " fill="#E8E6EF" transform="translate(608,32)"/>
<path d="M0 0 C15.51 0 31.02 0 47 0 C47 0.33 47 0.66 47 1 C31.49 1 15.98 1 0 1 C0 0.67 0 0.34 0 0 Z " fill="#000002" transform="translate(747,145)"/>
<path d="M0 0 C5.28 0.66 10.56 1.32 16 2 C16 2.66 16 3.32 16 4 C16.66 4.33 17.32 4.66 18 5 C16.27119018 5.05449838 14.54187288 5.09301688 12.8125 5.125 C11.84957031 5.14820312 10.88664063 5.17140625 9.89453125 5.1953125 C6.80871915 4.98709306 4.73648621 4.42732096 2 3 C1.34 2.01 0.68 1.02 0 0 Z " fill="#BFC2EE" transform="translate(888,122)"/>
<path d="M0 0 C1.16144531 0.00902344 2.32289063 0.01804687 3.51953125 0.02734375 C4.39996094 0.03894531 5.28039062 0.05054687 6.1875 0.0625 C6.5175 1.0525 6.8475 2.0425 7.1875 3.0625 C5.14590905 3.0897616 3.10421037 3.10901345 1.0625 3.125 C-0.07445312 3.13660156 -1.21140625 3.14820312 -2.3828125 3.16015625 C-5.6254156 3.067827 -8.63182612 2.67639906 -11.8125 2.0625 C-11.8125 1.7325 -11.8125 1.4025 -11.8125 1.0625 C-7.81454108 0.10630267 -4.10446078 -0.0414592 0 0 Z " fill="#E8E6EF" transform="translate(648.8125,122.9375)"/>
<path d="M0 0 C0.99 0 1.98 0 3 0 C3 0.66 3 1.32 3 2 C2.01 2.33 1.02 2.66 0 3 C0 2.01 0 1.02 0 0 Z M-4 4 C-4 4.99 -4 5.98 -4 7 C-4.99 7.33 -5.98 7.66 -7 8 C-6.67 7.01 -6.34 6.02 -6 5 C-5.34 4.67 -4.68 4.34 -4 4 Z M-8 8 C-7.34 8.66 -6.68 9.32 -6 10 C-6.95632999 11.29315061 -7.91513851 12.58446853 -8.875 13.875 C-9.40867187 14.59429687 -9.94234375 15.31359375 -10.4921875 16.0546875 C-12 18 -12 18 -14 20 C-13.59791618 14.37082652 -11.71069698 11.99613521 -8 8 Z " fill="#909AF6" transform="translate(682,68)"/>
<path d="M0 0 C13.2 0 26.4 0 40 0 C40 0.33 40 0.66 40 1 C26.8 1 13.6 1 0 1 C0 0.67 0 0.34 0 0 Z " fill="#000002" transform="translate(165,185)"/>
<path d="M0 0 C13.2 0 26.4 0 40 0 C40 0.33 40 0.66 40 1 C26.8 1 13.6 1 0 1 C0 0.67 0 0.34 0 0 Z " fill="#000002" transform="translate(65,185)"/>
<path d="M0 0 C0.33 0 0.66 0 1 0 C1 13.2 1 26.4 1 40 C0.67 40 0.34 40 0 40 C0 26.8 0 13.6 0 0 Z " fill="#000002" transform="translate(205,145)"/>
<path d="M0 0 C0.33 0 0.66 0 1 0 C1 13.2 1 26.4 1 40 C0.67 40 0.34 40 0 40 C0 26.8 0 13.6 0 0 Z " fill="#000002" transform="translate(105,145)"/>
<path d="M0 0 C13.2 0 26.4 0 40 0 C40 0.33 40 0.66 40 1 C26.8 1 13.6 1 0 1 C0 0.67 0 0.34 0 0 Z " fill="#000002" transform="translate(65,85)"/>
<path d="M0 0 C0.33 0 0.66 0 1 0 C1 13.2 1 26.4 1 40 C0.67 40 0.34 40 0 40 C0 26.8 0 13.6 0 0 Z " fill="#000002" transform="translate(105,45)"/>
<path d="M0 0 C13.2 0 26.4 0 40 0 C40 0.33 40 0.66 40 1 C26.8 1 13.6 1 0 1 C0 0.67 0 0.34 0 0 Z " fill="#000002" transform="translate(225,25)"/>
<path d="M0 0 C4.62 0 9.24 0 14 0 C14.33 0.99 14.66 1.98 15 3 C13.25034642 3.05429959 11.50020213 3.09292823 9.75 3.125 C8.77546875 3.14820312 7.8009375 3.17140625 6.796875 3.1953125 C3.9803502 2.99862781 2.39050964 2.44568916 0 1 C0 0.67 0 0.34 0 0 Z " fill="#C1C4EF" transform="translate(473,124)"/>
<path d="M0 0 C0.58394531 0.22945312 1.16789062 0.45890625 1.76953125 0.6953125 C1.15464844 1.23800781 0.53976562 1.78070313 -0.09375 2.33984375 C-0.90199219 3.05527344 -1.71023438 3.77070312 -2.54296875 4.5078125 C-3.34347656 5.21550781 -4.14398438 5.92320313 -4.96875 6.65234375 C-6.78030037 8.28868372 -8.52728578 9.94803418 -10.23046875 11.6953125 C-10.08039444 6.74286037 -7.36977817 4.32565936 -4.1171875 0.953125 C-2.23046875 -0.3046875 -2.23046875 -0.3046875 0 0 Z " fill="#969FF6" transform="translate(370.23046875,48.3046875)"/>
<path d="M0 0 C1.0209375 0.2165625 1.0209375 0.2165625 2.0625 0.4375 C1.36125 0.953125 0.66 1.46875 -0.0625 2 C-2.92762303 4.42912605 -5.2199333 6.96877823 -7.60546875 9.8515625 C-8.9375 11.4375 -8.9375 11.4375 -10.9375 13.4375 C-10.82966042 9.01607738 -9.63798545 6.70499102 -6.6875 3.5625 C-4.24320335 1.26939696 -3.37807079 0.50311693 0 0 Z " fill="#8F99F6" transform="translate(876.9375,69.5625)"/>
<path d="M0 0 C0.99 0 1.98 0 3 0 C2.1875 2.9375 2.1875 2.9375 1 6 C0.01 6.33 -0.98 6.66 -2 7 C-2.33 7.66 -2.66 8.32 -3 9 C-4.65 8.67 -6.3 8.34 -8 8 C-7.236875 7.4225 -6.47375 6.845 -5.6875 6.25 C-2.98734291 4.17663042 -2.98734291 4.17663042 -1.375 1.75 C-0.694375 0.88375 -0.694375 0.88375 0 0 Z " fill="#A6ADF1" transform="translate(516,66)"/>
<path d="M0 0 C0.33 0.99 0.66 1.98 1 3 C-1.3125 6.1875 -1.3125 6.1875 -4 9 C-4.66 9 -5.32 9 -6 9 C-4.52307692 4.32307692 -4.52307692 4.32307692 -1.875 2.6875 C-1.25625 2.460625 -0.6375 2.23375 0 2 C0 1.34 0 0.68 0 0 Z M-8 9 C-7.34 9 -6.68 9 -6 9 C-6.66 10.98 -7.32 12.96 -8 15 C-8.33 15 -8.66 15 -9 15 C-9.042721 13.33388095 -9.04063832 11.66617115 -9 10 C-8.67 9.67 -8.34 9.34 -8 9 Z " fill="#A1A9F5" transform="translate(706,89)"/>
<path d="M0 0 C0.66 0.66 1.32 1.32 2 2 C1.34 2 0.68 2 0 2 C0 1.34 0 0.68 0 0 Z M-1 2 C-0.67 3.32 -0.34 4.64 0 6 C-2.68841859 8.25245881 -4.64641875 9.88213958 -8 11 C-6.44499019 7.18315774 -3.96404505 4.80804268 -1 2 Z " fill="#8D98F6" transform="translate(1104,110)"/>
<path d="M0 0 C0.8971875 0.309375 0.8971875 0.309375 1.8125 0.625 C0.513125 1.4603125 0.513125 1.4603125 -0.8125 2.3125 C-3.16225789 3.86601292 -5.30707975 5.53318348 -7.4375 7.375 C-10.1875 9.625 -10.1875 9.625 -12.1875 9.625 C-11.0899777 6.63175737 -10.51067108 5.77889099 -7.5625 4.375 C-6.77875 4.1275 -5.995 3.88 -5.1875 3.625 C-5.1875 2.965 -5.1875 2.305 -5.1875 1.625 C-2.1875 -0.375 -2.1875 -0.375 0 0 Z " fill="#929CF6" transform="translate(201.1875,70.375)"/>
<path d="M0 0 C0.99 0 1.98 0 3 0 C2 3 2 3 -0.3125 4.375 C-3.31639952 6.19131134 -4.94543592 8.18448626 -7 11 C-6.58485103 6.1565954 -4.53791301 4.18412171 -1 1 C-0.67 0.67 -0.34 0.34 0 0 Z " fill="#9CA5F5" transform="translate(757,68)"/>
<path d="M0 0 C1.485 0.99 1.485 0.99 3 2 C5.62531524 2.16713569 5.62531524 2.16713569 8 2 C8.33 2.99 8.66 3.98 9 5 C6.03 5 3.06 5 0 5 C-0.33 3.68 -0.66 2.36 -1 1 C-0.67 0.67 -0.34 0.34 0 0 Z " fill="#C6C9F1" transform="translate(702,122)"/>
<path d="M0 0 C-1.36983503 3.16115776 -1.9890638 3.9927092 -5 6 C-5 3 -5 3 -3.625 1.3125 C-2 0 -2 0 0 0 Z M-11 6 C-8.525 6.495 -8.525 6.495 -6 7 C-6 7.66 -6 8.32 -6 9 C-7.9375 8.625 -7.9375 8.625 -10 8 C-10.33 7.34 -10.66 6.68 -11 6 Z " fill="#9CA5F5" transform="translate(936,66)"/>
<path d="M0 0 C0.33 0 0.66 0 1 0 C1 8.25 1 16.5 1 25 C0.67 25 0.34 25 0 25 C0 16.75 0 8.5 0 0 Z " fill="#000002" transform="translate(265,0)"/>
<path d="M0 0 C0.33 0 0.66 0 1 0 C1 6.6 1 13.2 1 20 C0.67 20 0.34 20 0 20 C0 13.4 0 6.8 0 0 Z " fill="#000002" transform="translate(657,125)"/>
<path d="M0 0 C0.33 0 0.66 0 1 0 C1 6.27 1 12.54 1 19 C0.67 19 0.34 19 0 19 C0 12.73 0 6.46 0 0 Z " fill="#E8E6EF" transform="translate(812,66)"/>
<path d="M0 0 C5.94 0 11.88 0 18 0 C18 0.33 18 0.66 18 1 C12.06 1 6.12 1 0 1 C0 0.67 0 0.34 0 0 Z " fill="#000002" transform="translate(639,145)"/>
<path d="M0 0 C0.66 0.66 1.32 1.32 2 2 C1.01 2.66 0.02 3.32 -1 4 C-1 1 -1 1 0 0 Z " fill="#828DF1" transform="translate(810,134)"/>
<path d="M0 0 C1.65 0 3.3 0 5 0 C5 0.33 5 0.66 5 1 C3.35 1 1.7 1 0 1 C0 0.67 0 0.34 0 0 Z " fill="#000002" transform="translate(1082,145)"/>
<path d="M0 0 C1.65 0 3.3 0 5 0 C5 0.33 5 0.66 5 1 C3.35 1 1.7 1 0 1 C0 0.67 0 0.34 0 0 Z " fill="#000002" transform="translate(936,145)"/>
<path d="M0 0 C0.99 0.33 1.98 0.66 3 1 C2.01 1 1.02 1 0 1 C0 0.67 0 0.34 0 0 Z " fill="#B3B6E6" transform="translate(811,133)"/>
<path d="M0 0 C0.66 0.66 1.32 1.32 2 2 C1.01 2.495 1.01 2.495 0 3 C0 2.01 0 1.02 0 0 Z " fill="#B3B6E6" transform="translate(225,99)"/>
<path d="M0 0 C0.66 0 1.32 0 2 0 C1.67 0.66 1.34 1.32 1 2 C0.67 1.34 0.34 0.68 0 0 Z " fill="#A2A7E3" transform="translate(719,100)"/>
<path d="" fill="#E8E6EF" transform="translate(0,0)"/>
<path d="" fill="#E8E6EF" transform="translate(0,0)"/>
<path d="" fill="#E8E6EF" transform="translate(0,0)"/>
<path d="" fill="#E8E6EF" transform="translate(0,0)"/>
<path d="" fill="#000002" transform="translate(0,0)"/>
<path d="" fill="#5164FC" transform="translate(0,0)"/>
<path d="" fill="#E8E6EF" transform="translate(0,0)"/>
<path d="" fill="#E8E6EF" transform="translate(0,0)"/>
<path d="" fill="#E8E6EF" transform="translate(0,0)"/>
<path d="" fill="#000002" transform="translate(0,0)"/>
<path d="" fill="#5164FC" transform="translate(0,0)"/>
<path d="" fill="#E8E6EF" transform="translate(0,0)"/>
<path d="" fill="#E8E6EF" transform="translate(0,0)"/>
<path d="" fill="#E8E6EF" transform="translate(0,0)"/>
<path d="" fill="#5164FC" transform="translate(0,0)"/>
<path d="" fill="#5164FC" transform="translate(0,0)"/>
<path d="" fill="#5164FC" transform="translate(0,0)"/>
<path d="" fill="#1729CC" transform="translate(0,0)"/>
<path d="" fill="#5164FC" transform="translate(0,0)"/>
<path d="" fill="#E8E6EF" transform="translate(0,0)"/>
<path d="" fill="#000002" transform="translate(0,0)"/>
<path d="" fill="#5164FC" transform="translate(0,0)"/>
<path d="" fill="#1729CC" transform="translate(0,0)"/>
<path d="" fill="#1729CC" transform="translate(0,0)"/>
<path d="" fill="#5164FC" transform="translate(0,0)"/>
</svg>
